<?xml version="1.0" encoding="UTF-8"?>
<svg width="14px" height="15px" viewBox="0 0 14 15" version="1.1" xmlns="http://www.w3.org/2000/svg" xmlns:xlink="http://www.w3.org/1999/xlink">
    <!-- Generator: Sketch 53.2 (72643) - https://sketchapp.com -->
    <title>分组</title>
    <desc>Created with Sketch.</desc>
    <defs>
        <polygon id="path-1" points="0 0 14 0 14 15 0 15"></polygon>
    </defs>
    <g id="页面-1" stroke="none" stroke-width="1" fill="none" fill-rule="evenodd">
        <g id="商品列表-首页-copy-72" transform="translate(-1817.000000, -379.000000)">
            <g id="分组" transform="translate(1817.000000, 379.000000)">
                <mask id="mask-2" fill="white">
                    <use xlink:href="#path-1"></use>
                </mask>
                <g id="Clip-2"></g>
                <path d="M9.84421053,9.49071779 C10.0835134,9.483468 10.3079819,9.60113766 10.4297804,9.79725376 C10.5517741,9.99374163 10.5517741,10.2378179 10.4297804,10.433934 C10.3079819,10.630236 10.0835134,10.7479056 9.84421053,10.7406558 L4.15598466,10.7406558 C3.7935169,10.7406558 3.49975601,10.4608883 3.49975601,10.1155009 C3.49975601,9.7704853 3.7935169,9.49071779 4.15598466,9.49071779 L9.84421053,9.49071779 Z M9.84421053,3.70371288 C10.0835134,3.69646309 10.3079819,3.81394686 10.4297804,4.01043474 C10.5517741,4.20673673 10.5517741,4.45062708 10.4297804,4.64692906 C10.3079819,4.84341694 10.0835134,4.96090071 9.84421053,4.95365092 L4.15598466,4.95365092 C3.7935169,4.95365092 3.49975601,4.67388341 3.49975601,4.3286819 C3.49975601,3.98348039 3.7935169,3.70371288 4.15598466,3.70371288 L9.84421053,3.70371288 Z M7.21910073,6.6203589 C7.58156849,6.6203589 7.87532938,6.90012641 7.87532938,7.24532791 C7.87532938,7.59034353 7.58156849,7.87029693 7.21910073,7.87029693 L4.15598466,7.87029693 C3.7935169,7.87029693 3.49975601,7.59034353 3.49975601,7.24532791 C3.49975601,6.90012641 3.7935169,6.6203589 4.15598466,6.6203589 L7.21910073,6.6203589 Z M12.250122,1.24993804 L1.74987801,1.24993804 C1.50823283,1.24993804 1.3124573,1.43657364 1.3124573,1.66670798 L1.3124573,13.333292 C1.31284768,13.5632405 1.50842802,13.7495043 1.74987801,13.7498761 L7.87513419,13.7498761 C10.5324503,13.7498761 12.6875427,11.6979998 12.6875427,9.16670798 L12.6875427,1.66670798 C12.6875427,1.55610222 12.6414779,1.45014376 12.5594981,1.3720691 C12.4773231,1.29380856 12.3660648,1.24993804 12.250122,1.24993804 L12.250122,1.24993804 Z M12.250122,0 C13.2165075,0 14,0.746170624 14,1.66670798 L14,9.16670798 C14,10.7137015 13.354702,12.1974917 12.2062043,13.2912804 C11.0575113,14.385255 9.49950505,15 7.87513419,15 L1.74987801,15 C1.28591147,15 0.840683165,14.8241461 0.512568839,14.5116616 C0.184259324,14.1991771 0,13.7753433 0,13.333292 L0,1.66670798 C0,1.22465672 0.184259324,0.80063699 0.512568839,0.488152481 C0.840683165,0.175667972 1.28591147,0 1.74987801,0 L12.250122,0 Z" id="Fill-1" fill-opacity="0.85" fill="#000000" mask="url(#mask-2)"></path>
            </g>
        </g>
    </g>
</svg>
