<?xml version="1.0" encoding="utf-8"?>
<!-- Generator: Adobe Illustrator 23.0.1, SVG Export Plug-In . SVG Version: 6.00 Build 0)  -->
<svg version="1.1" id="图层_1" xmlns="http://www.w3.org/2000/svg" xmlns:xlink="http://www.w3.org/1999/xlink" x="0px" y="0px"
	 viewBox="0 0 15 15" style="enable-background:new 0 0 15 15;" xml:space="preserve">
<g>
	<path class="st0" d="M7.5,0C3.4,0,0,3.4,0,7.5C0,11.6,3.4,15,7.5,15S15,11.6,15,7.5C15,3.4,11.6,0,7.5,0z M7.5,13.5
		c-3.3,0-6-2.7-6-6c0-3.3,2.7-6,6-6c3.3,0,6,2.7,6,6C13.5,10.8,10.8,13.5,7.5,13.5z"/>
	<path class="st0" d="M10.4,5C10.2,5,10,5.1,9.9,5.2l-3,3.2L5.1,6.6C5,6.4,4.8,6.4,4.6,6.4c-0.2,0-0.3,0.1-0.4,0.2
		C4.1,6.7,4,6.9,4,7c0,0.2,0.1,0.4,0.2,0.5l2.2,2.3C6.5,9.9,6.7,10,6.8,10s0.3-0.1,0.5-0.2l3.5-3.6C10.9,6,11,5.8,11,5.7
		c0-0.2-0.1-0.3-0.2-0.5C10.7,5.1,10.5,5,10.4,5z"/>
</g>
</svg>
