<?xml version="1.0" encoding="utf-8"?>
<!-- Generator: Adobe Illustrator 23.0.1, SVG Export Plug-In . SVG Version: 6.00 Build 0)  -->
<svg version="1.1" id="图层_1" xmlns="http://www.w3.org/2000/svg" xmlns:xlink="http://www.w3.org/1999/xlink" x="0px" y="0px"
	 viewBox="0 0 14 14" style="enable-background:new 0 0 14 14;" xml:space="preserve">
<title>分组 5</title>
<desc>Created with Sketch.</desc>
<g id="分组">
	<g id="Clip-2">
	</g>
	<g id="Clip-4">
	</g>
</g>
<g>
	<path class="st0" d="M7,0.1C3.2,0.1,0.1,3.2,0.1,7c0,3.8,3.1,6.9,6.9,6.9c3.8,0,6.9-3.1,6.9-6.9C13.9,3.2,10.8,0.1,7,0.1z
		 M10.8,10.9c-1,1-2.4,1.6-3.9,1.6C4,12.5,1.5,10,1.5,7S4,1.6,7,1.6c3,0,5.5,2.4,5.5,5.5C12.4,8.5,11.9,9.8,10.8,10.9z"/>
	<path class="st0" d="M7.3,6.7V3.4C7.3,3,7,2.7,6.6,2.7S5.8,3,5.8,3.4v3.5c0,0.2,0.1,0.4,0.2,0.5l2,2.5l0,0c0.1,0.2,0.4,0.3,0.6,0.3
		c0.2,0,0.3,0,0.5-0.2C9.3,9.8,9.4,9.3,9.1,9L7.3,6.7z"/>
</g>
</svg>
