<?xml version="1.0" encoding="utf-8"?>
<!-- Generator: Adobe Illustrator 23.0.1, SVG Export Plug-In . SVG Version: 6.00 Build 0)  -->
<svg version="1.1" id="图层_1" xmlns="http://www.w3.org/2000/svg" xmlns:xlink="http://www.w3.org/1999/xlink" x="0px" y="0px"
	 viewBox="0 0 16 16" style="enable-background:new 0 0 16 16;" xml:space="preserve">
<g id="页面-1">
	<g id="tab选择态-copy-146" transform="translate(-1224.000000, -279.000000)">
		<g id="分组-5" transform="translate(1224.000000, 279.000000)">
			<path id="组" class="st0" d="M5.9,12.5v-0.7h1.2V4h4.7v7.8h0.9v0.7H5.9z M4.3,9C5,8.9,5.7,8.8,6.4,8.8c0,0.3,0,0.5-0.1,0.7
				c-1,0.1-1.9,0.3-2.9,0.4L3.3,9.1c0.4-0.3,0.9-1,1.5-2c-0.7,0-1.3,0.1-1.6,0.1L3,6.6c0.5-0.6,1.1-1.7,1.7-3.1l0.8,0.3
				c-0.6,1.1-1.1,2-1.6,2.8c0.5,0,1,0,1.3,0C5.4,6,5.7,5.5,6,4.9l0.8,0.3C6,6.6,5.2,7.8,4.3,9z M11.1,4.7H7.9v1.9h3.2V4.7z
				 M7.9,11.8h3.2V9.9H7.9V11.8z M7.9,9.2h3.2V7.3H7.9V9.2z M3.1,11.2c0.9-0.2,2.1-0.4,3.4-0.7c0,0.3,0,0.5,0,0.7
				c-1.4,0.3-2.4,0.5-3.1,0.7L3.1,11.2z"/>
		</g>
	</g>
</g>
<g>
	<path class="st1" d="M8,15.7c-4.3,0-7.8-3.5-7.8-7.8S3.7,0.2,8,0.2s7.8,3.5,7.8,7.8S12.3,15.7,8,15.7z M8,0.9c-3.9,0-7,3.2-7,7
		c0,3.9,3.2,7,7,7c3.9,0,7-3.2,7-7C15,4.1,11.9,0.9,8,0.9z"/>
</g>
</svg>
