<?xml version="1.0" encoding="UTF-8"?>
<svg width="20px" height="20px" viewBox="0 0 20 20" version="1.1" xmlns="http://www.w3.org/2000/svg" xmlns:xlink="http://www.w3.org/1999/xlink">
    <title>icon/菜单/采购/selected</title>
    <g id="icon/菜单/采购/selected" stroke="none" stroke-width="1" fill="none" fill-rule="evenodd">
        <g id="菜篮子_vegetable-basket" transform="translate(2.976343, 3.000000)">
            <path d="M2.02567341,2.88888889 L1.11110541,2.88888889 C0.558820661,2.88888889 0.111105411,3.33660414 0.111105411,3.88888889 C0.111105411,3.92395064 0.1129494,3.95898813 0.116629737,3.99385619 L1,12.3630361 L1,12.3630361 C1.04259634,12.7263861 1.34637521,13 1.70715335,13 L12.5201893,13 C12.8869031,13 13.1936552,12.717575 13.2290126,12.3473639 L14.1121715,3.9940282 C14.1702383,3.44480448 13.772077,2.95249822 13.2228533,2.89443139 C13.1879285,2.89073895 13.1528334,2.88888889 13.117714,2.88888889 L11.9955597,2.88888889 L11.9955597,2.88888889" id="路径" stroke="#FFFFFF" stroke-width="1.2" stroke-linecap="round" stroke-linejoin="round"></path>
            <path d="M14.0023522,5.77777778 L12.8465295,13 L1.29200793,13 L0.523657327,5.77777778 L14.0023522,5.77777778 Z M10.7613023,8.70555556 L3.68601233,8.70555556 L3.5785749,8.71340854 C3.26385994,8.7599088 3.02365733,9.00732179 3.02365733,9.30555556 C3.02365733,9.63692641 3.32020376,9.90555556 3.68601233,9.90555556 L3.68601233,9.90555556 L10.7613023,9.90555556 L10.8687398,9.89770257 C11.1834547,9.85120231 11.4236573,9.60378932 11.4236573,9.30555556 C11.4236573,8.97418471 11.1271109,8.70555556 10.7613023,8.70555556 L10.7613023,8.70555556 Z" id="形状结合" fill="#FFFFFF"></path>
            <line x1="0.523657327" y1="5.77777778" x2="13.5236573" y2="5.77777778" id="路径" stroke="#FFFFFF" stroke-width="1.2" stroke-linecap="round" stroke-linejoin="round"></line>
            <path d="M7.01061655,0 C5.4374041,0 4.16207761,2.50058611 4.16207761,5.58519722 C4.16207761,5.64965556 4.16264732,5.71386111 4.16375113,5.77777778 L9.85748196,5.77777778 C9.85858577,5.71386111 9.85915548,5.64965556 9.85915548,5.58519722 C9.85915548,2.50058611 8.58382899,0 7.01061655,0 Z" id="路径" stroke="#FFFFFF" stroke-width="1.2" stroke-linecap="round" stroke-linejoin="round"></path>
        </g>
    </g>
</svg>