<?xml version="1.0" encoding="UTF-8"?>
<svg width="20px" height="20px" viewBox="0 0 20 20" version="1.1" xmlns="http://www.w3.org/2000/svg" xmlns:xlink="http://www.w3.org/1999/xlink">
    <title>icon/菜单/采购</title>
    <g id="icon/菜单/采购" stroke="none" stroke-width="1" fill="none" fill-rule="evenodd" stroke-linecap="round" stroke-linejoin="round">
        <g id="菜篮子_vegetable-basket" transform="translate(2.976343, 3.000000)" stroke="#FFFFFF" stroke-width="1.2">
            <path d="M2.02567341,2.88888889 L1.11110541,2.88888889 C0.558820661,2.88888889 0.111105411,3.33660414 0.111105411,3.88888889 C0.111105411,3.92395064 0.1129494,3.95898813 0.116629737,3.99385619 L1,12.3630361 L1,12.3630361 C1.04259634,12.7263861 1.34637521,13 1.70715335,13 L12.5201893,13 C12.8869031,13 13.1936552,12.717575 13.2290126,12.3473639 L14.1121715,3.9940282 C14.1702383,3.44480448 13.772077,2.95249822 13.2228533,2.89443139 C13.1879285,2.89073895 13.1528334,2.88888889 13.117714,2.88888889 L11.9955597,2.88888889 L11.9955597,2.88888889" id="路径"></path>
            <line x1="0.523657327" y1="5.77777778" x2="13.5236573" y2="5.77777778" id="路径"></line>
            <line x1="3.80601025" y1="9.30555556" x2="10.2152228" y2="9.30555556" id="路径"></line>
            <path d="M7.01061655,0 C5.4374041,0 4.16207761,2.50058611 4.16207761,5.58519722 C4.16207761,5.64965556 4.16264732,5.71386111 4.16375113,5.77777778 L9.85748196,5.77777778 C9.85858577,5.71386111 9.85915548,5.64965556 9.85915548,5.58519722 C9.85915548,2.50058611 8.58382899,0 7.01061655,0 Z" id="路径"></path>
        </g>
    </g>
</svg>