<?xml version="1.0" encoding="utf-8"?>
<!-- Generator: Adobe Illustrator 23.0.1, SVG Export Plug-In . SVG Version: 6.00 Build 0)  -->
<svg version="1.1" id="图层_1" xmlns="http://www.w3.org/2000/svg" xmlns:xlink="http://www.w3.org/1999/xlink" x="0px" y="0px"
	 viewBox="0 0 16 16" style="enable-background:new 0 0 16 16;" xml:space="preserve">
<style type="text/css">
	.st0{fill-rule:evenodd;clip-rule:evenodd;fill-opacity:0.8;}
</style>
<g id="页面-1_1_">
	<g id="商品列表-首页-copy-32_1_" transform="translate(-20.000000, -193.000000)">
		<g id="分组-copy-68" transform="translate(20.000000, 193.000000)">
			<g id="分组">
				<path id="Fill-1" class="st0" d="M4.6,10.5l-0.8-6c0-0.2,0.1-0.4,0.4-0.4h10c0.1,0,0.2,0,0.2,0.1c0,0,0.1,0.1,0,0.2l-0.8,5.9
					l0,0c0,0.2-0.1,0.4-0.4,0.4H5C4.8,10.9,4.6,10.7,4.6,10.5 M15.6,3.4L15.6,3.4c-0.2-0.2-0.4-0.3-0.7-0.3H3.7c0,0-0.1,0-0.1-0.1
					L3.3,1.4c0-0.5-0.5-0.8-1-0.8H0.6C0.3,0.5,0.1,0.8,0.1,1.1v0.1c0,0.3,0.3,0.5,0.5,0.5h1.6l1.3,8.9c0,0.8,0.7,1.5,1.6,1.5h8.3
					c0.8,0,1.6-0.6,1.6-1.5l0.9-6.5C15.9,3.8,15.8,3.5,15.6,3.4"/>
			</g>
			<g transform="translate(3.000000, 12.000000)">
				<path id="Fill-3" class="st0" d="M1.6,2.6C1.3,2.6,1,2.3,1,2s0.3-0.6,0.6-0.6S2.2,1.7,2.2,2S2,2.6,1.6,2.6 M1.6,0.5
					C0.8,0.5,0.1,1.1,0.1,2c0,0.8,0.6,1.5,1.5,1.5S3.1,2.9,3.1,2C3.1,1.2,2.5,0.5,1.6,0.5"/>
			</g>
			<g transform="translate(3.000000, 12.000000)">
				<path id="Fill-3_1_" class="st0" d="M10.6,2.6C10.3,2.6,10,2.3,10,2s0.3-0.6,0.6-0.6c0.3,0,0.6,0.3,0.6,0.6S11,2.6,10.6,2.6
					 M10.6,0.5C9.8,0.5,9.1,1.1,9.1,2c0,0.8,0.6,1.5,1.5,1.5s1.5-0.6,1.5-1.5C12.1,1.2,11.5,0.5,10.6,0.5"/>
			</g>
		</g>
	</g>
</g>
</svg>
