<?xml version="1.0" encoding="utf-8"?>
<!-- Generator: Adobe Illustrator 23.0.1, SVG Export Plug-In . SVG Version: 6.00 Build 0)  -->
<svg version="1.1" id="图层_1" xmlns="http://www.w3.org/2000/svg" xmlns:xlink="http://www.w3.org/1999/xlink" x="0px" y="0px"
	 viewBox="0 0 16 16" style="enable-background:new 0 0 16 16;" xml:space="preserve">
<style type="text/css">
	.st0{display:none;}
	.st1{display:inline;}
</style>
<g>
	<path d="M5.1,12h8.3c0.8,0,1.6-0.6,1.6-1.5l0.9-6.5c0-0.3-0.1-0.6-0.3-0.7c-0.2-0.2-0.4-0.3-0.7-0.3H3.7c0,0-0.1,0-0.1-0.1L3.4,1.4
		c0-0.5-0.5-0.8-1-0.8H0.7C0.3,0.5,0.1,0.8,0.1,1v0.1c0,0.3,0.3,0.5,0.5,0.5h1.6l1.3,8.9C3.5,11.4,4.2,12,5.1,12z"/>
	<path d="M4.6,12.5c-0.8,0-1.5,0.6-1.5,1.5c0,0.8,0.6,1.5,1.5,1.5c0.9,0,1.5-0.6,1.5-1.5C6.1,13.2,5.5,12.5,4.6,12.5z M4.6,14.6
		C4.3,14.6,4,14.3,4,14c0-0.3,0.3-0.6,0.6-0.6c0.3,0,0.6,0.3,0.6,0.6C5.3,14.3,5,14.6,4.6,14.6z"/>
	<path d="M13.6,12.5c-0.8,0-1.5,0.6-1.5,1.5c0,0.8,0.6,1.5,1.5,1.5c0.9,0,1.5-0.6,1.5-1.5C15.1,13.2,14.5,12.5,13.6,12.5z
		 M13.6,14.6c-0.3,0-0.6-0.3-0.6-0.6c0-0.3,0.3-0.6,0.6-0.6c0.3,0,0.6,0.3,0.6,0.6C14.3,14.3,14,14.6,13.6,14.6z"/>
</g>
</svg>
