<?xml version="1.0" encoding="utf-8"?>
<!-- Generator: Adobe Illustrator 23.0.1, SVG Export Plug-In . SVG Version: 6.00 Build 0)  -->
<svg version="1.1" id="图层_1" xmlns="http://www.w3.org/2000/svg" xmlns:xlink="http://www.w3.org/1999/xlink" x="0px" y="0px"
	 viewBox="0 0 16 16" style="enable-background:new 0 0 16 16;" xml:space="preserve">
<style type="text/css">
	.st0{display:none;}
	.st1{display:inline;}
	.st2{filter:url(#Adobe_OpacityMaskFilter);}
	.st3{fill-rule:evenodd;clip-rule:evenodd;fill:#FFFFFF;}
	.st4{mask:url(#mask-2_2_);fill-rule:evenodd;clip-rule:evenodd;fill-opacity:0.8;}
</style>
<g id="页面-1_2_">
	<g id="商品列表-首页-copy-32_2_" transform="translate(-20.000000, -114.000000)">
		<g id="分组-copy-71" transform="translate(20.000000, 114.000000)">
			<defs>
				<filter id="Adobe_OpacityMaskFilter" filterUnits="userSpaceOnUse" x="0" y="1" width="16" height="12">
					<feColorMatrix  type="matrix" values="1 0 0 0 0  0 1 0 0 0  0 0 1 0 0  0 0 0 1 0"/>
				</filter>
			</defs>
			<mask maskUnits="userSpaceOnUse" x="0" y="1" width="16" height="12" id="mask-2_2_">
				<g class="st2">
					<polygon id="path-1_2_" class="st3" points="0,1 16,1 16,13 0,13 					"/>
				</g>
			</mask>
			<path id="Fill-1" class="st4" d="M15.5,12h-15C0.2,12,0,12.3,0,12.5C0,12.8,0.2,13,0.5,13h15c0.3,0,0.5-0.2,0.5-0.5
				C16,12.2,15.8,12,15.5,12L15.5,12z M8,3.9c3.6,0,6.5,2.8,6.5,6.2h-13C1.5,6.7,4.4,3.9,8,3.9L8,3.9z M7.5,2.4C7.5,2.2,7.7,2,8,2
				c0.3,0,0.5,0.2,0.5,0.5c0,0.3-0.2,0.5-0.5,0.5C7.7,2.9,7.5,2.7,7.5,2.4L7.5,2.4z M15.4,11.1c0-0.3,0.1-0.6,0.1-1
				c0-3.5-2.6-6.5-6.1-7.1c0.1-0.2,0.1-0.4,0.1-0.6C9.5,1.6,8.8,1,8,1S6.5,1.6,6.5,2.4c0,0.2,0,0.4,0.1,0.6
				c-3.5,0.6-6.1,3.5-6.1,7.1c0,0.3,0,0.6,0.1,1H15.4z"/>
		</g>
	</g>
</g>
</svg>
