<?xml version="1.0" encoding="utf-8"?>
<!-- Generator: Adobe Illustrator 23.0.1, SVG Export Plug-In . SVG Version: 6.00 Build 0)  -->
<svg version="1.1" id="图层_1" xmlns="http://www.w3.org/2000/svg" xmlns:xlink="http://www.w3.org/1999/xlink" x="0px" y="0px"
	 viewBox="0 0 16 16" style="enable-background:new 0 0 16 16;" xml:space="preserve">
<style type="text/css">
	.st0{display:none;}
	.st1{display:inline;}
</style>
<g>
	<path d="M15.4,11.1c0-0.3,0.1-0.6,0.1-1c0-3.5-2.6-6.5-6.1-7.1c0.1-0.2,0.1-0.4,0.1-0.6C9.5,1.6,8.8,1,8,1C7.2,1,6.5,1.6,6.5,2.4
		c0,0.2,0,0.4,0.1,0.6c-3.5,0.6-6.1,3.5-6.1,7.1c0,0.3,0,0.6,0.1,1H15.4z M8,2c0.3,0,0.5,0.2,0.5,0.5c0,0.3-0.2,0.5-0.5,0.5
		c-0.3,0-0.5-0.2-0.5-0.5C7.5,2.2,7.7,2,8,2z"/>
	<path d="M15.5,12h-15C0.2,12,0,12.3,0,12.5C0,12.8,0.2,13,0.5,13h15c0.3,0,0.5-0.2,0.5-0.5C16,12.2,15.8,12,15.5,12z"/>
</g>
</svg>
