<?xml version="1.0" encoding="UTF-8"?>
<svg width="20px" height="20px" viewBox="0 0 20 20" version="1.1" xmlns="http://www.w3.org/2000/svg" xmlns:xlink="http://www.w3.org/1999/xlink">
    <title>icon/菜单/菜谱/selected</title>
    <g id="icon/菜单/菜谱/selected" stroke="none" stroke-width="1" fill="none" fill-rule="evenodd">
        <path d="M10,4.33333333 C14.2341831,4.33333333 17.6666667,7.76581692 17.6666667,12 L17.6666667,12 L17.6666667,13 C17.6666667,13.3681898 17.3681898,13.6666667 17,13.6666667 L17,13.6666667 L3,13.6666667 C2.63181017,13.6666667 2.33333333,13.3681898 2.33333333,13 L2.33333333,13 L2.33333333,12 C2.33333333,7.76581692 5.76581692,4.33333333 10,4.33333333 Z M8.27100355,5.90283029 C8.16231808,5.64897584 7.86842141,5.53129312 7.61456697,5.63997859 C6.12267662,6.27871781 5.00825325,7.32936771 4.28735062,8.77713018 C4.16426302,9.02432252 4.26486979,9.32449373 4.51206213,9.44758133 C4.75925447,9.57066893 5.05942567,9.47006216 5.18251327,9.22286982 C5.79756848,7.98767686 6.73409676,7.10474191 8.00815185,6.55926687 C8.26200629,6.4505814 8.37968901,6.15668474 8.27100355,5.90283029 Z" id="形状结合" fill="#FFFFFF" fill-rule="nonzero"></path>
        <circle id="椭圆形" fill="#FFFFFF" cx="10" cy="3.5" r="1.5"></circle>
        <line x1="2" y1="16" x2="18" y2="16" id="路径-5" stroke="#FFFFFF" stroke-width="1.33333333" stroke-linecap="round" stroke-linejoin="round"></line>
    </g>
</svg>