<?xml version="1.0" encoding="utf-8"?>
<!-- Generator: Adobe Illustrator 23.0.1, SVG Export Plug-In . SVG Version: 6.00 Build 0)  -->
<svg version="1.1" id="图层_1" xmlns="http://www.w3.org/2000/svg" xmlns:xlink="http://www.w3.org/1999/xlink" x="0px" y="0px"
	 viewBox="0 0 16 16" style="enable-background:new 0 0 16 16;" xml:space="preserve">
<style type="text/css">
	.st0{filter:url(#Adobe_OpacityMaskFilter);}
	.st1{fill-rule:evenodd;clip-rule:evenodd;fill:#FFFFFF;}
	.st2{mask:url(#mask-2_2_);fill-rule:evenodd;clip-rule:evenodd;fill-opacity:0.8;}
	.st3{fill-rule:evenodd;clip-rule:evenodd;fill:none;}
</style>
<g id="页面-1_1_">
	<g id="商品列表-首页-copy-32_1_" transform="translate(-20.000000, -311.000000)">
		<g id="分组-copy-74" transform="translate(20.000000, 311.000000)">
			<defs>
				<filter id="Adobe_OpacityMaskFilter" filterUnits="userSpaceOnUse" x="0.5" y="0.5" width="15" height="15">
					<feColorMatrix  type="matrix" values="1 0 0 0 0  0 1 0 0 0  0 0 1 0 0  0 0 0 1 0"/>
				</filter>
			</defs>
			<mask maskUnits="userSpaceOnUse" x="0.5" y="0.5" width="15" height="15" id="mask-2_2_">
				<g class="st0">
					<polygon id="path-1_2_" class="st1" points="0.5,0.5 15.5,0.5 15.5,15.5 0.5,15.5 					"/>
				</g>
			</mask>
			<path id="Fill-1" class="st2" d="M10.3,4.6c0.2,0.2,0.2,0.5,0,0.8L9.1,6.6h1.2c0.3,0,0.5,0.2,0.5,0.5c0,0.3-0.2,0.5-0.5,0.5H8.5
				v1.1h1.8c0.3,0,0.5,0.2,0.5,0.5c0,0.3-0.2,0.5-0.5,0.5H8.5v2c0,0.3-0.2,0.5-0.5,0.5c-0.3,0-0.5-0.2-0.5-0.5v-2H5.7
				c-0.3,0-0.5-0.2-0.5-0.5c0-0.3,0.2-0.5,0.5-0.5h1.8V7.6H5.7c-0.3,0-0.5-0.2-0.5-0.5c0-0.3,0.2-0.5,0.5-0.5h1.2L5.7,5.3
				c-0.2-0.2-0.2-0.5,0-0.8c0.2-0.2,0.5-0.2,0.8,0L8,6.2l1.6-1.6C9.8,4.4,10.1,4.4,10.3,4.6 M8,1.6C4.4,1.6,1.6,4.4,1.6,8
				s2.9,6.4,6.4,6.4s6.4-2.9,6.4-6.4S11.6,1.6,8,1.6 M8,0.5c4.1,0,7.5,3.4,7.5,7.5c0,4.1-3.4,7.5-7.5,7.5c-4.1,0-7.5-3.4-7.5-7.5
				C0.5,3.9,3.9,0.5,8,0.5"/>
		</g>
	</g>
</g>
<rect x="0" class="st3" width="16" height="16"/>
</svg>
