<?xml version="1.0" encoding="utf-8"?>
<!-- Generator: Adobe Illustrator 23.0.1, SVG Export Plug-In . SVG Version: 6.00 Build 0)  -->
<svg version="1.1" id="图层_1" xmlns="http://www.w3.org/2000/svg" xmlns:xlink="http://www.w3.org/1999/xlink" x="0px" y="0px"
	 viewBox="0 0 16 16" style="enable-background:new 0 0 16 16;" xml:space="preserve">
<g id="页面-1_2_">
	<g id="商品列表-首页-copy-32_2_" transform="translate(-22.000000, -153.000000)">
		<g id="分组-copy-72" transform="translate(22.000000, 153.000000)">
			<path id="Fill-1" class="st2" d="M13.1,13c0,0.8-0.7,1.6-1.5,1.6H4.4c-0.4,0-0.8-0.2-1-0.5c-0.3-0.3-0.4-0.7-0.4-1.1V3
				c0-0.8,0.7-1.6,1.5-1.6h7.2c0.4,0,0.8,0.2,1,0.5c0.3,0.3,0.4,0.7,0.4,1.1V13z M13.3,1.3c-0.4-0.5-1.1-0.8-1.7-0.8H4.4
				c-0.7,0-1.3,0.3-1.7,0.8C2.3,1.8,2,2.5,2,3.1v9.7c0,0.7,0.2,1.3,0.7,1.9c0.4,0.5,1.1,0.8,1.7,0.8h7.2c0.7,0,1.2-0.2,1.7-0.8
				c0.4-0.5,0.7-1.2,0.7-1.9V3.1C14,2.4,13.8,1.8,13.3,1.3L13.3,1.3z"/>
			<path id="Stroke-7" class="st3" d="M8.5,8.5h-3c-0.2,0-0.3,0.1-0.4,0.2S5,9.1,5.1,9.2s0.2,0.2,0.4,0.2h3c0.2,0,0.3-0.1,0.4-0.2
				C9,9.1,9,8.9,8.9,8.8C8.8,8.6,8.7,8.5,8.5,8.5z"/>
			<path id="Stroke-11" class="st3" d="M10.6,5.5H5.4C5.2,5.5,5,5.7,5,6s0.2,0.5,0.4,0.5h5.1C10.8,6.5,11,6.3,11,6
				C11,5.8,10.8,5.5,10.6,5.5z"/>
		</g>
	</g>
</g>
</svg>
