<?xml version="1.0" encoding="utf-8"?>
<!-- Generator: Adobe Illustrator 23.0.1, SVG Export Plug-In . SVG Version: 6.00 Build 0)  -->
<svg version="1.1" id="图层_1" xmlns="http://www.w3.org/2000/svg" xmlns:xlink="http://www.w3.org/1999/xlink" x="0px" y="0px"
	 viewBox="0 0 16 16" style="enable-background:new 0 0 16 16;" xml:space="preserve">
<path d="M13.3,1.3c-0.4-0.5-1.1-0.8-1.7-0.8H4.4c-0.7,0-1.3,0.3-1.7,0.8C2.3,1.8,2,2.5,2,3.1v9.7c0,0.7,0.2,1.3,0.7,1.9
	c0.4,0.5,1.1,0.8,1.7,0.8h7.2c0.7,0,1.2-0.2,1.7-0.8c0.4-0.5,0.7-1.2,0.7-1.9V3.1C14,2.4,13.8,1.8,13.3,1.3z M5.1,8.7
	c0.1-0.1,0.2-0.2,0.4-0.2h3c0.2,0,0.3,0.1,0.4,0.3C9,8.9,9,9.1,8.9,9.2C8.8,9.3,8.7,9.4,8.5,9.4h-3c-0.2,0-0.3-0.1-0.4-0.2
	C5,9.1,5,8.8,5.1,8.7z M10.5,6.5H5.4C5.2,6.5,5,6.3,5,6s0.2-0.5,0.4-0.5h5.2C10.8,5.5,11,5.8,11,6C11,6.3,10.8,6.5,10.5,6.5z"/>
</svg>
