<?xml version="1.0" encoding="UTF-8"?>
<svg width="20px" height="20px" viewBox="0 0 20 20" version="1.1" xmlns="http://www.w3.org/2000/svg" xmlns:xlink="http://www.w3.org/1999/xlink">
    <title>icon/菜单/配送/selected</title>
    <g id="icon/菜单/配送/selected" stroke="none" stroke-width="1" fill="none" fill-rule="evenodd" stroke-linejoin="round">
        <g id="货车_truck" transform="translate(2.000000, 4.000000)" stroke="#FFFFFF" stroke-width="1.2">
            <path d="M3.63636364,12 C4.43967273,12 5.09090909,11.3603929 5.09090909,10.5714286 C5.09090909,9.78246429 4.43967273,9.14285714 3.63636364,9.14285714 C2.83304,9.14285714 2.18181818,9.78246429 2.18181818,10.5714286 C2.18181818,11.3603929 2.83304,12 3.63636364,12 Z" id="路径"></path>
            <path d="M12,12 C12.8033091,12 13.4545455,11.3603929 13.4545455,10.5714286 C13.4545455,9.78246429 12.8033091,9.14285714 12,9.14285714 C11.1966909,9.14285714 10.5454545,9.78246429 10.5454545,10.5714286 C10.5454545,11.3603929 11.1966909,12 12,12 Z" id="路径"></path>
            <polyline id="路径" fill="#FFFFFF" stroke-linecap="round" points="2.18181818 10 0 10 0 0 10.5454545 0 10.5454545 10 5.09090909 10"></polyline>
            <polyline id="路径" stroke-linecap="round" points="10.5454545 9.57142857 10.5454545 2.5 13.6623273 2.5 16 5.53571429 16 10 13.7495273 10"></polyline>
        </g>
    </g>
</svg>