<?xml version="1.0" encoding="UTF-8"?>
<svg width="20px" height="20px" viewBox="0 0 20 20" version="1.1" xmlns="http://www.w3.org/2000/svg" xmlns:xlink="http://www.w3.org/1999/xlink">
    <title>icon/菜单/财务/selected</title>
    <g id="icon/菜单/财务/selected" stroke="none" stroke-width="1" fill="none" fill-rule="evenodd">
        <g id="消费_consume" transform="translate(2.500000, 3.000000)">
            <path d="M14.25,2.5 C14.664225,2.5 15,2.85816 15,3.3 L15,13.7 C15,14.14184 14.664225,14.5 14.25,14.5 L0.75,14.5 C0.33578625,14.5 0,14.14184 0,13.7 L0,3.3 C0,2.85816 0.33578625,2.5 0.75,2.5 L14.25,2.5 Z M9.86944882,5.07097472 C9.6325047,4.83931954 9.25262991,4.84360706 9.02097472,5.08055118 L9.02097472,5.08055118 L7.575,6.559 L6.12902528,5.08055118 L6.04671665,5.01019123 C5.81471805,4.84556715 5.49116817,4.865059 5.28055118,5.07097472 C5.04360706,5.30262991 5.03931954,5.6825047 5.27097472,5.91944882 L5.27097472,5.91944882 L6.523,7.201 L4.5,7.20136986 L4.40267688,7.20922285 C4.11758961,7.25572311 3.9,7.5031361 3.9,7.80136986 C3.9,8.13274071 4.16862915,8.40136986 4.5,8.40136986 L4.5,8.40136986 L6.899,8.401 L6.899,9.201 L4.5,9.20136986 L4.40267688,9.20922285 C4.11758961,9.25572311 3.9,9.5031361 3.9,9.80136986 C3.9,10.1327407 4.16862915,10.4013699 4.5,10.4013699 L4.5,10.4013699 L6.899,10.401 L6.9,11.3219178 L6.90785299,11.4192409 C6.95435325,11.7043282 7.20176624,11.9219178 7.5,11.9219178 C7.83137085,11.9219178 8.1,11.6532887 8.1,11.3219178 L8.1,11.3219178 L8.099,10.401 L10.5,10.4013699 L10.5973231,10.3935169 C10.8824104,10.3470166 11.1,10.0996036 11.1,9.80136986 C11.1,9.46999901 10.8313708,9.20136986 10.5,9.20136986 L10.5,9.20136986 L8.099,9.201 L8.099,8.401 L10.5,8.40136986 L10.5973231,8.39351688 C10.8824104,8.34701662 11.1,8.09960363 11.1,7.80136986 C11.1,7.46999901 10.8313708,7.20136986 10.5,7.20136986 L10.5,7.20136986 L8.626,7.201 L9.87902528,5.91944882 L9.94750956,5.8355731 C10.1068554,5.59991795 10.0800658,5.27689044 9.86944882,5.07097472 Z" id="形状结合" fill="#FFFFFF"></path>
            <g id="编组" transform="translate(3.900000, 4.900000)"></g>
            <line x1="1.5" y1="0.5" x2="13.5" y2="0.5" id="路径" stroke="#FFFFFF" stroke-width="1.2" stroke-linecap="round" stroke-linejoin="round"></line>
        </g>
    </g>
</svg>