<?xml version="1.0" encoding="UTF-8"?>
<svg width="20px" height="20px" viewBox="0 0 20 20" version="1.1" xmlns="http://www.w3.org/2000/svg" xmlns:xlink="http://www.w3.org/1999/xlink">
    <title>icon/菜单/财务</title>
    <g id="icon/菜单/财务" stroke="none" stroke-width="1" fill="none" fill-rule="evenodd" stroke-linejoin="round">
        <g id="消费_consume" transform="translate(3.000000, 3.000000)" stroke="#FFFFFF" stroke-width="1.2">
            <path d="M0,3.73333333 C0,3.32831333 0.3134005,3 0.7,3 L13.3,3 C13.68661,3 14,3.32831333 14,3.73333333 L14,13.2666667 C14,13.6716867 13.68661,14 13.3,14 L0.7,14 C0.3134005,14 0,13.6716867 0,13.2666667 L0,3.73333333 Z" id="路径"></path>
            <g id="编组" transform="translate(4.000000, 5.500000)" stroke-linecap="round">
                <polyline id="路径" points="1.2 0 3.075 1.91780822 4.95 0"></polyline>
                <line x1="0" y1="2.30136986" x2="6" y2="2.30136986" id="路径"></line>
                <line x1="0" y1="4.30136986" x2="6" y2="4.30136986" id="路径"></line>
                <line x1="3" y1="1.82191781" x2="3" y2="5.82191781" id="路径"></line>
            </g>
            <line x1="1" y1="0.5" x2="13" y2="0.5" id="路径" stroke-linecap="round"></line>
        </g>
    </g>
</svg>