<?xml version="1.0" encoding="utf-8"?>
<!-- Generator: Adobe Illustrator 23.0.1, SVG Export Plug-In . SVG Version: 6.00 Build 0)  -->
<svg version="1.1" id="图层_1" xmlns="http://www.w3.org/2000/svg" xmlns:xlink="http://www.w3.org/1999/xlink" x="0px" y="0px"
	 viewBox="0 0 16 16" style="enable-background:new 0 0 16 16;" xml:space="preserve">
<path d="M15.3,5.5l-2.1-3.6C12.9,1.3,12.3,1,11.6,1H4.4C3.7,1,3.1,1.3,2.8,1.9L0.7,5.5C0.6,5.6,0.6,5.7,0.6,5.8v7.9
	c0,1,0.8,1.8,1.9,1.8h11.1c1,0,1.8-0.8,1.9-1.8V5.8C15.4,5.7,15.4,5.6,15.3,5.5z M3.8,2.5c0.1-0.2,0.3-0.3,0.5-0.3h7.2
	c0.2,0,0.5,0.1,0.5,0.3l1.6,2.7H2.2L3.8,2.5z M10.4,10.1H5.6C5.3,10.1,5,9.8,5,9.5c0-0.3,0.3-0.6,0.6-0.6h4.8c0.3,0,0.6,0.3,0.6,0.6
	C11,9.8,10.7,10.1,10.4,10.1z"/>
</svg>
