<?xml version="1.0" encoding="utf-8"?>
<!-- Generator: Adobe Illustrator 23.0.1, SVG Export Plug-In . SVG Version: 6.00 Build 0)  -->
<svg version="1.1" id="图层_1" xmlns="http://www.w3.org/2000/svg" xmlns:xlink="http://www.w3.org/1999/xlink" x="0px" y="0px"
	 viewBox="0 0 16 16" style="enable-background:new 0 0 16 16;" xml:space="preserve">
<g>
	<path d="M14.9,5.3c-0.3-0.7-0.8-1.4-1.4-2c0-0.2,0.1-0.3,0.1-0.5c0-1.3-1-2.3-2.3-2.3c-0.8,0-1.5,0.4-1.9,1c-0.1,0-0.3,0-0.4,0
		c-0.8,0-1.5,0.1-2.2,0.4c-0.7,0.2-1.3,0.6-1.9,1c-0.6,0.4-1,1-1.4,1.6C3.1,5,2.8,5.5,2.6,6.1C1.4,6.2,0.5,7.2,0.5,8.5
		s1,2.3,2.3,2.3c0.1,0,0.1,0,0.2,0c0.5,1.1,1.3,2,2.2,2.6c1.1,0.8,2.4,1.2,3.7,1.2c0.2,0,0.3,0,0.5,0c0.4,0.6,1.1,0.9,1.9,0.9
		c1.3,0,2.3-1,2.3-2.3c0-0.2,0-0.3,0-0.5c0.5-0.6,1-1.3,1.3-2C15.3,9.9,15.5,9,15.5,8C15.5,7.1,15.3,6.1,14.9,5.3z M11.3,1.4
		c0.8,0,1.4,0.6,1.4,1.4s-0.6,1.4-1.4,1.4S9.9,3.6,9.9,2.8C9.9,2.1,10.5,1.4,11.3,1.4z M2.8,9.9c-0.7,0-1.4-0.7-1.4-1.4
		c0-0.8,0.6-1.4,1.4-1.4s1.4,0.6,1.4,1.4S3.6,9.9,2.8,9.9z M11.3,14.6c-0.8,0-1.4-0.6-1.4-1.4s0.6-1.4,1.4-1.4s1.4,0.6,1.4,1.4
		C12.7,13.9,12,14.6,11.3,14.6z M13.1,11.9c-0.4-0.7-1.1-1.1-1.8-1.1c-1.3,0-2.3,1-2.3,2.3c0,0.2,0,0.3,0,0.5c-2.2,0-4.1-1.2-5-3.1
		c0.7-0.4,1.3-1.2,1.3-2.1c0-1-0.7-1.9-1.6-2.2C4.3,4,6.5,2.4,8.9,2.4c0,0.1,0,0.3,0,0.5c0,1.3,1,2.3,2.3,2.3c0.8,0,1.4-0.4,1.9-0.9
		c0.9,1,1.4,2.4,1.4,3.8C14.5,9.5,14,10.8,13.1,11.9z"/>
</g>
</svg>
