<?xml version="1.0" encoding="utf-8"?>
<!-- Generator: Adobe Illustrator 23.0.1, SVG Export Plug-In . SVG Version: 6.00 Build 0)  -->
<svg version="1.1" id="图层_1" xmlns="http://www.w3.org/2000/svg" xmlns:xlink="http://www.w3.org/1999/xlink" x="0px" y="0px"
	 viewBox="0 0 16 16" style="enable-background:new 0 0 16 16;" xml:space="preserve">
<style type="text/css">
	.st0{fill-rule:evenodd;clip-rule:evenodd;fill:none;}
	.st1{filter:url(#Adobe_OpacityMaskFilter);}
	.st2{fill-rule:evenodd;clip-rule:evenodd;fill:#FFFFFF;}
	.st3{mask:url(#mask-2_2_);fill-rule:evenodd;clip-rule:evenodd;fill-opacity:0.8;}
	.st4{filter:url(#Adobe_OpacityMaskFilter_1_);}
	.st5{mask:url(#mask-4_2_);fill-rule:evenodd;clip-rule:evenodd;fill-opacity:0.8;}
</style>
<rect x="0" y="0" class="st0" width="16" height="16"/>
<g id="页面-1">
	<g id="商品列表-首页-copy-32" transform="translate(-21.000000, -429.000000)">
		<g id="分组-copy-62" transform="translate(21.000000, 429.000000)">
			<g id="分组" transform="translate(0.000000, 9.000000)">
				<defs>
					<filter id="Adobe_OpacityMaskFilter" filterUnits="userSpaceOnUse" x="1" y="0.2" width="13.8" height="6.3">
						<feColorMatrix  type="matrix" values="1 0 0 0 0  0 1 0 0 0  0 0 1 0 0  0 0 0 1 0"/>
					</filter>
				</defs>
				<mask maskUnits="userSpaceOnUse" x="1" y="0.2" width="13.8" height="6.3" id="mask-2_2_">
					<g class="st1">
						<polygon id="path-1_2_" class="st2" points="1,0.2 14.8,0.2 14.8,6.5 1,6.5 						"/>
					</g>
				</mask>
				<path id="Fill-1" class="st3" d="M13.7,4.5c0,0.3-0.2,0.6-0.5,0.6H2.6C2.3,5,2.1,4.8,2.1,4.5V3.4c0-0.9,0.7-1.7,1.6-1.7h8.4
					c0.9,0,1.6,0.8,1.6,1.7V4.5z M11.8,0.2H4c-1.6,0-3,1.4-3,3.1v1c0,1.2,0.9,2.1,2,2.1h9.8c1.1,0,2-0.9,2-2.1v-1
					C14.8,1.6,13.4,0.2,11.8,0.2L11.8,0.2z"/>
			</g>
			<g transform="translate(3.000000, 0.000000)">
				<defs>
					<filter id="Adobe_OpacityMaskFilter_1_" filterUnits="userSpaceOnUse" x="1.3" y="0.6" width="7.5" height="7.5">
						<feColorMatrix  type="matrix" values="1 0 0 0 0  0 1 0 0 0  0 0 1 0 0  0 0 0 1 0"/>
					</filter>
				</defs>
				<mask maskUnits="userSpaceOnUse" x="1.3" y="0.6" width="7.5" height="7.5" id="mask-4_2_">
					<g class="st4">
						<polygon id="path-3_2_" class="st2" points="1.3,0.6 9.8,0.6 9.8,9 1.3,9 						"/>
					</g>
				</mask>
				<path id="Fill-3" class="st5" d="M5,1.8c1.4,0,2.5,1.1,2.5,2.5c0,1.4-1.1,2.5-2.5,2.5S2.5,5.8,2.5,4.4C2.5,3,3.6,1.8,5,1.8
					 M5,8.1c2.1,0,3.7-1.7,3.7-3.7c0-2.1-1.7-3.7-3.7-3.7S1.3,2.3,1.3,4.4C1.3,6.4,3,8.1,5,8.1"/>
			</g>
		</g>
	</g>
</g>
</svg>
