<?xml version="1.0" encoding="utf-8"?>
<!-- Generator: Adobe Illustrator 23.0.1, SVG Export Plug-In . SVG Version: 6.00 Build 0)  -->
<svg version="1.1" id="图层_1" xmlns="http://www.w3.org/2000/svg" xmlns:xlink="http://www.w3.org/1999/xlink" x="0px" y="0px"
	 viewBox="0 0 16 16" style="enable-background:new 0 0 16 16;" xml:space="preserve">
<style type="text/css">
	.st0{fill-rule:evenodd;clip-rule:evenodd;fill:none;}
</style>
<rect x="0" y="0" class="st0" width="16" height="16"/>
<g>
	<path d="M11.8,9.2H4c-1.6,0-3,1.4-3,3.1v1c0,1.2,0.9,2.1,2,2.1h9.8c1.1,0,2-0.9,2-2.1v-1C14.8,10.6,13.4,9.2,11.8,9.2z"/>
	<path d="M8,8.1c2.1,0,3.7-1.7,3.7-3.7c0-2.1-1.7-3.7-3.7-3.7S4.3,2.3,4.3,4.4C4.3,6.4,6,8.1,8,8.1z"/>
</g>
</svg>
