<?xml version="1.0" encoding="UTF-8"?>
<svg width="20px" height="20px" viewBox="0 0 20 20" version="1.1" xmlns="http://www.w3.org/2000/svg" xmlns:xlink="http://www.w3.org/1999/xlink">
    <title>icon/菜单/订单/selected</title>
    <g id="icon/菜单/订单/selected" stroke="none" stroke-width="1" fill="none" fill-rule="evenodd">
        <path d="M6.35147886,4 L6.35147886,5.89130254 C6.35147886,6.33313034 6.70965106,6.69130254 7.15147886,6.69130254 L12.8950028,6.69130254 C13.3368306,6.69130254 13.6950028,6.33313034 13.6950028,5.89130254 L13.6950028,4 L15.46875,4 C15.9002344,4 16.25,4.33881135 16.25,4.75675676 L16.25,17.2432432 C16.25,17.6612 15.9002344,18 15.46875,18 L4.53125,18 C4.09977734,18 3.75,17.6612 3.75,17.2432432 L3.75,4.75675676 C3.75,4.33881135 4.09977734,4 4.53125,4 L6.35147886,4 Z M10.6253174,8.83967684 L10.5422268,8.90911169 L7.87569351,11.5761784 L7.81230692,11.6499727 C7.5509477,12.0069314 7.76577413,12.525495 8.20299769,12.5930503 L8.3,12.6004 L10.185,12.6 L8.54258478,14.2429204 L8.47314215,14.3260044 C8.3111016,14.5598148 8.33418115,14.8831286 8.54242043,15.0914485 C8.7506597,15.2997685 9.07396449,15.3229733 9.30783764,15.1610234 L9.39094855,15.0916129 L12.0588485,12.4247462 L12.1222657,12.3509589 C12.3837601,11.9940214 12.1689678,11.4753248 11.7316835,11.4077517 L11.6346667,11.4004 L9.748,11.4 L11.3908398,9.75755498 L11.4602581,9.67445057 C11.6222299,9.4405926 11.5990554,9.11728564 11.390755,8.90902684 C11.1824545,8.70076805 10.8591429,8.6776582 10.6253174,8.83967684 Z M12.5,3 L12.5,5.5 L7.5,5.5 L7.5,3 L12.5,3 Z" id="形状结合" fill="#FFFFFF"></path>
    </g>
</svg>