<?xml version="1.0" encoding="UTF-8"?>
<svg width="20px" height="20px" viewBox="0 0 20 20" version="1.1" xmlns="http://www.w3.org/2000/svg" xmlns:xlink="http://www.w3.org/1999/xlink">
    <title>icon/菜单/生产/selected</title>
    <g id="icon/菜单/生产/selected" stroke="none" stroke-width="1" fill="none" fill-rule="evenodd">
        <path d="M6.02237701,2.9 C6.32061078,2.9 6.56802377,3.11758961 6.61452403,3.40267688 L6.62237701,3.5 L6.622,8.345 L11.2902062,5.8325082 C11.6345957,5.64708466 12.0420497,5.83630804 12.1482807,6.18258202 L12.1683521,6.27229648 L12.174646,6.3608017 L12.174,8.334 L16.7104424,5.83529586 C17.0549552,5.64546676 17.4661187,5.83389766 17.5733746,6.18168124 L17.5936427,6.2718203 L17.6,6.3608017 L17.6,16.5 C17.6,16.7982338 17.3824104,17.0456468 17.0973231,17.092147 L17,17.1 L3,17.1 C2.70176624,17.1 2.45435325,16.8824104 2.40785299,16.5973231 L2.4,16.5 L2.4,3.5 C2.4,3.20176624 2.61758961,2.95435325 2.90267688,2.90785299 L3,2.9 L6.02237701,2.9 Z M8.5,12 L6.5,12 L6.5,14 L8.5,14 L8.5,12 Z M13.5,12 L11.5,12 L11.5,14 L13.5,14 L13.5,12 Z" id="形状结合" fill="#FFFFFF" fill-rule="nonzero"></path>
    </g>
</svg>