<?xml version="1.0" encoding="utf-8"?>
<!-- Generator: Adobe Illustrator 23.0.1, SVG Export Plug-In . SVG Version: 6.00 Build 0)  -->
<svg version="1.1" id="图层_1" xmlns="http://www.w3.org/2000/svg" xmlns:xlink="http://www.w3.org/1999/xlink" x="0px" y="0px"
	 viewBox="0 0 16 16" style="enable-background:new 0 0 16 16;" xml:space="preserve">
<style type="text/css">
	.st0{fill-rule:evenodd;clip-rule:evenodd;fill:none;}
	.st1{filter:url(#Adobe_OpacityMaskFilter);}
	.st2{fill-rule:evenodd;clip-rule:evenodd;fill:#FFFFFF;}
	.st3{mask:url(#mask-2_2_);fill-rule:evenodd;clip-rule:evenodd;fill-opacity:0.8;}
	.st4{fill-rule:evenodd;clip-rule:evenodd;fill-opacity:0.8;}
</style>
<rect x="0" y="0" class="st0" width="16" height="16"/>
<g id="页面-1_1_">
	<g id="商品列表-首页-copy-32_1_" transform="translate(-20.000000, -390.000000)">
		<g id="分组-copy-61" transform="translate(20.000000, 390.000000)">
			<g id="分组">
				<defs>
					<filter id="Adobe_OpacityMaskFilter" filterUnits="userSpaceOnUse" x="0" y="1.4" width="16" height="13.6">
						<feColorMatrix  type="matrix" values="1 0 0 0 0  0 1 0 0 0  0 0 1 0 0  0 0 0 1 0"/>
					</filter>
				</defs>
				<mask maskUnits="userSpaceOnUse" x="0" y="1.4" width="16" height="13.6" id="mask-2_2_">
					<g class="st1">
						<polygon id="path-1_2_" class="st2" points="0,1.4 16,1.4 16,15 0,15 						"/>
					</g>
				</mask>
				<path id="Fill-1" class="st3" d="M2.5,2.5h4.8c0.7,0,1.3,0.6,1.3,1.3V12H5.8c-0.4-0.8-1.2-1.3-2-1.3c-0.9,0-1.6,0.5-2,1.2
					c-0.4-0.1-0.6-0.4-0.6-0.8V3.9C1.2,3.1,1.8,2.5,2.5,2.5L2.5,2.5z M3.7,11.9c0.6,0,1.1,0.5,1.1,1s-0.5,1-1.1,1
					c-0.6,0-1.1-0.5-1.1-1S3.2,11.9,3.7,11.9L3.7,11.9z M14.8,8.1V12h-0.6c-0.4-0.8-1.2-1.3-2-1.3c-0.9,0-1.7,0.5-2,1.3h-0.1H9.8
					V4.9H12c0.5,0,0.9,0.2,1.1,0.6L14.8,8.1z M12.2,11.9c0.6,0,1.1,0.5,1.1,1c0,0.6-0.5,1-1.1,1c-0.6,0-1.1-0.5-1.1-1
					S11.6,11.9,12.2,11.9L12.2,11.9z M14.1,4.9c-0.5-0.7-1.3-1.1-2.1-1.1H9.8C9.7,2.5,8.6,1.4,7.3,1.4H2.5C1.1,1.4,0,2.5,0,3.8v7.4
					c0,0.9,0.7,1.7,1.6,1.9C1.7,14.2,2.6,15,3.8,15c1.1,0,2-0.8,2.2-1.8h2.7c0.1,0,0.1,0,0.2,0H10c0.2,1,1.1,1.8,2.2,1.8
					c1.1,0,2-0.8,2.2-1.8H16V7.8L14.1,4.9z"/>
			</g>
			<path id="Fill-3" class="st4" d="M11.2,8.1C11.1,8.2,11,8.4,11,8.5C11,8.8,11.3,9,11.6,9h1.9C13.8,9,14,8.8,14,8.5
				C14,8.2,13.8,8,13.4,8h-1.9C11.4,8,11.3,8,11.2,8.1"/>
		</g>
	</g>
</g>
</svg>
