<?xml version="1.0" encoding="utf-8"?>
<!-- Generator: Adobe Illustrator 23.0.1, SVG Export Plug-In . SVG Version: 6.00 Build 0)  -->
<svg version="1.1" id="图层_1" xmlns="http://www.w3.org/2000/svg" xmlns:xlink="http://www.w3.org/1999/xlink" x="0px" y="0px"
	 viewBox="0 0 16 16" style="enable-background:new 0 0 16 16;" xml:space="preserve">
<style type="text/css">
	.st0{fill-rule:evenodd;clip-rule:evenodd;fill:none;}
</style>
<rect x="0" y="0" class="st0" width="16" height="16"/>
<g>
	<path d="M14.1,4.9c-0.5-0.7-1.3-1.1-2.1-1.1H9.8C9.7,2.5,8.6,1.4,7.3,1.4H2.5C1.1,1.4,0,2.5,0,3.8v7.4c0,0.9,0.7,1.7,1.6,1.9
		C1.7,14.2,2.6,15,3.8,15c1.1,0,2-0.8,2.2-1.8h2.7c0.1,0,0.1,0,0.2,0H10c0.2,1,1.1,1.8,2.2,1.8c1.1,0,2-0.8,2.2-1.8H16V7.8L14.1,4.9
		z M3.7,13.9c-0.6,0-1.1-0.5-1.1-1c0-0.5,0.5-1,1.1-1c0.6,0,1.1,0.5,1.1,1C4.8,13.4,4.3,13.9,3.7,13.9z M12.2,13.9
		c-0.6,0-1.1-0.5-1.1-1c0-0.5,0.5-1,1.1-1c0.6,0,1.1,0.5,1.1,1C13.2,13.5,12.8,13.9,12.2,13.9z M14.8,12h-0.6
		c-0.4-0.8-1.2-1.3-2-1.3c-0.9,0-1.7,0.5-2,1.3h-0.1H9.8V4.9H12c0.5,0,0.9,0.2,1.1,0.6l1.7,2.7V12z"/>
	<path d="M11.2,8.1C11.1,8.2,11,8.4,11,8.5C11,8.8,11.3,9,11.6,9h1.9C13.8,9,14,8.8,14,8.5C14,8.2,13.8,8,13.4,8h-1.9
		C11.4,8,11.3,8,11.2,8.1z"/>
</g>
</svg>
