<?xml version="1.0" encoding="UTF-8"?>
<svg width="20px" height="20px" viewBox="0 0 20 20" version="1.1" xmlns="http://www.w3.org/2000/svg" xmlns:xlink="http://www.w3.org/1999/xlink">
    <title>icon/菜单/报表/selected</title>
    <g id="icon/菜单/报表/selected" stroke="none" stroke-width="1" fill="none" fill-rule="evenodd">
        <path d="M9.39922928,3.02542007 L9.4,10 L9.40124558,10.0387692 C9.40167729,10.0454787 9.40222123,10.0521824 9.40287739,10.0588772 L9.4069472,10.091054 C9.40909008,10.1050113 9.41172168,10.1188655 9.41483225,10.1325921 C9.41696982,10.1424625 9.4195827,10.1528019 9.42247473,10.1630794 C9.42781985,10.1815561 9.43377583,10.199353 9.44054991,10.2168308 C9.44540659,10.2298531 9.45121239,10.2434069 9.45754025,10.2567755 C9.48476146,10.3137324 9.52039746,10.3660822 9.56403942,10.4122358 L9.56403942,10.4122358 L14.3561273,15.4797754 C13.1606498,16.4313801 11.646729,17 10,17 C6.13400675,17 3,13.8659932 3,10 C3,6.3363844 5.81447597,3.33012488 9.39922928,3.02542007 Z M17,10 C17,11.7874396 16.3300529,13.4184048 15.2275624,14.6554916 L10.837,10.012335 L15.3654966,5.50402965 C16.3856794,6.72023191 17,8.28837482 17,10 Z M14.5190204,4.65392268 L10.599,8.55633499 L10.5997689,3.02533499 C12.087522,3.15158038 13.4426432,3.74314692 14.5190204,4.65392268 Z" id="形状结合" fill="#FFFFFF" fill-rule="nonzero"></path>
    </g>
</svg>