<?xml version="1.0" encoding="utf-8"?>
<!-- Generator: Adobe Illustrator 23.0.1, SVG Export Plug-In . SVG Version: 6.00 Build 0)  -->
<svg version="1.1" id="图层_1" xmlns="http://www.w3.org/2000/svg" xmlns:xlink="http://www.w3.org/1999/xlink" x="0px" y="0px"
	 viewBox="0 0 16 16" style="enable-background:new 0 0 16 16;" xml:space="preserve">
<style type="text/css">
	.st0{display:none;}
	.st1{display:inline;}
</style>
<path d="M15.1,3.1c-0.4,0.5-0.9,0.9-1.4,1.2c-0.8,0.5-1.4,0.3-1.8-0.2c-0.5-0.5-0.6-1-0.1-1.9c0.5-0.7,1.2-1.4,1.1-1.4
	c-1.7-0.8-4-0.4-5.3,0.9C6.4,3,5.9,4.9,6.5,6.5l-5.1,5.1c-1.1,1.1-1.1,2.2-0.1,3.2c1,1,2.2,0.9,3.2-0.1l5.1-5.1
	c1.7,0.4,3.4,0.1,4.6-1.1C15.6,7.2,15.8,4.8,15.1,3.1z"/>
</svg>
