<?xml version="1.0" encoding="utf-8"?>
<!-- Generator: Adobe Illustrator 23.0.1, SVG Export Plug-In . SVG Version: 6.00 Build 0)  -->
<svg version="1.1" id="图层_1" xmlns="http://www.w3.org/2000/svg" xmlns:xlink="http://www.w3.org/1999/xlink" x="0px" y="0px"
	 viewBox="0 0 16 16" style="enable-background:new 0 0 16 16;" xml:space="preserve">
<style type="text/css">
	.st0{fill-rule:evenodd;clip-rule:evenodd;fill:none;}
</style>
<rect x="0" class="st0" width="16" height="16"/>
<g>
	<path d="M4,4.6c0.3,0,0.6-0.3,0.6-0.6c0-1.8,1.7-2.9,3.4-2.9c1.6,0,3.4,1.2,3.4,2.9c0,0.3,0.3,0.6,0.6,0.6c0.3,0,0.6-0.3,0.6-0.6
		c0-2.4-2.4-4-4.6-4c0,0,0,0,0,0s0,0,0,0C5.8,0,3.5,1.5,3.5,4C3.5,4.3,3.7,4.6,4,4.6z"/>
	<path d="M15,5.7c-0.3-0.3-0.7-0.5-1.2-0.5H2.2C1.7,5.1,1.3,5.3,1,5.7C0.7,6,0.6,6.5,0.6,6.9l1.2,7.4C2,15.3,2.9,16,3.8,16h8.4
		c0.9,0,1.8-0.7,1.9-1.6L15.4,7C15.4,6.5,15.3,6,15,5.7z M3.4,8.6c0-0.6,0.5-1.1,1.1-1.1c0.6,0,1.1,0.5,1.1,1.1
		c0,0.6-0.5,1.1-1.1,1.1C3.9,9.7,3.4,9.2,3.4,8.6z M11.4,9.7c-0.6,0-1.1-0.5-1.1-1.1c0-0.6,0.5-1.1,1.1-1.1c0.6,0,1.1,0.5,1.1,1.1
		C12.5,9.2,12,9.7,11.4,9.7z"/>
</g>
</svg>
