<?xml version="1.0" encoding="UTF-8"?>
<svg width="20px" height="20px" viewBox="0 0 20 20" version="1.1" xmlns="http://www.w3.org/2000/svg" xmlns:xlink="http://www.w3.org/1999/xlink">
    <title>icon/菜单/商品</title>
    <g id="icon/菜单/商品" stroke="none" stroke-width="1" fill="none" fill-rule="evenodd" stroke-linejoin="round">
        <path d="M6,3 C7.65685425,3 9,4.34314575 9,6 L9,9 L9,9 L6,9 C4.34314575,9 3,7.65685425 3,6 C3,4.34314575 4.34314575,3 6,3 Z" id="矩形" stroke="#FFFFFF" stroke-width="1.2"></path>
        <path d="M14,3 C15.6568542,3 17,4.34314575 17,6 C17,7.65685425 15.6568542,9 14,9 L11,9 L11,9 L11,6 C11,4.34314575 12.3431458,3 14,3 Z" id="矩形" stroke="#FFFFFF" stroke-width="1.2"></path>
        <path d="M6,11 L9,11 L9,11 L9,14 C9,15.6568542 7.65685425,17 6,17 C4.34314575,17 3,15.6568542 3,14 C3,12.3431458 4.34314575,11 6,11 Z" id="矩形" stroke="#FFFFFF" stroke-width="1.2"></path>
        <path d="M11,11 L14,11 C15.6568542,11 17,12.3431458 17,14 C17,15.6568542 15.6568542,17 14,17 C12.3431458,17 11,15.6568542 11,14 L11,11 L11,11 Z" id="矩形" stroke="#FFFFFF" stroke-width="1.2"></path>
    </g>
</svg>