<?xml version="1.0" encoding="UTF-8"?>
<svg version="1.1" xmlns="http://www.w3.org/2000/svg" xmlns:xlink="http://www.w3.org/1999/xlink" x="0px" y="0px"
	 viewBox="0 0 32 32" style="enable-background:new 0 0 16 16;" xml:space="preserve">
    <path d="M4,2 C2.8954305,2 2,2.8954305 2,4 L2,28 C2,29.1045695 2.8954305,30 4,30 L28,30 C29.1045695,30 30,29.1045695 30,28 L30,4 C30,2.8954305 29.1045695,2 28,2 L4,2 Z M4,0 L28,0 C30.209139,0 32,1.790861 32,4 L32,28 C32,30.209139 30.209139,32 28,32 L4,32 C1.790861,32 0,30.209139 0,28 L0,4 C0,1.790861 1.790861,0 4,0 Z"></path>
    <path d="M11.2654229,15.7392157 C11.3290581,14.5553922 11.838139,13.4470588 12.707819,12.6029412 C13.6340635,11.7039216 14.8996953,11.1960784 16.2112858,11.1960784 C17.5334822,11.1960784 18.7779023,11.6970588 19.7147526,12.6029412 C19.8278817,12.7127451 19.9374755,12.8294118 20.0399988,12.9495098 L19.2233481,13.5637255 C19.035978,13.7044118 19.0996131,13.9926471 19.3294066,14.047549 L22.627827,14.8196078 C22.8045912,14.8607843 22.9742848,14.7303922 22.9778201,14.5553922 L22.9990318,11.2818627 C22.9990318,11.0519608 22.7303502,10.9215686 22.5429801,11.0622549 L21.8253174,11.6044118 C20.503121,10.0156863 18.4774031,9 16.2112858,9 C12.3260083,9 9.15485816,11.9818627 8.99930565,15.7151961 C8.99223508,15.8696078 9.1230406,16 9.2821284,16 L10.9826002,16 C11.1346174,16 11.2583524,15.8867647 11.2654229,15.7392157 Z"></path>
    <path d="M22.7159353,16 L21.0154635,16 C20.8634462,16 20.7397113,16.1132353 20.7326407,16.2607843 C20.6690056,17.4446078 20.1599246,18.5529412 19.2902447,19.3970588 C18.3640002,20.2960784 17.0983684,20.8039216 15.7867779,20.8039216 C14.4645815,20.8039216 13.2201614,20.3029412 12.283311,19.3970588 C12.1701819,19.2872549 12.0605881,19.1705882 11.9580649,19.0504902 L12.7747156,18.4362745 C12.9620856,18.2955882 12.8984505,18.0073529 12.668657,17.952451 L9.37023669,17.1803922 C9.19347247,17.1392157 9.02377882,17.2696078 9.02024353,17.4446078 L8.99903183,20.7181373 C8.99903183,20.9480392 9.26771344,21.0784314 9.45508351,20.9377451 L10.1727462,20.3955882 C11.4949426,21.9843137 13.5206606,23 15.7867779,23 C19.6720554,23 22.8432055,20.0181373 22.998758,16.2848039 C23.0058286,16.1303922 22.8750231,16 22.7159353,16 Z"></path>
</svg>