<?xml version="1.0" encoding="UTF-8"?>
<svg width="32px" height="32px" viewBox="0 0 32 32" version="1.1" xmlns="http://www.w3.org/2000/svg" xmlns:xlink="http://www.w3.org/1999/xlink">
    <title>形状结合</title>
    <g id="页面-1" stroke="none" stroke-width="1" fill="none" fill-rule="evenodd">
        <path d="M28,0 C30.209139,-4.05812251e-16 32,1.790861 32,4 L32,28 C32,30.209139 30.209139,32 28,32 L4,32 C1.790861,32 2.705415e-16,30.209139 0,28 L0,4 C-2.705415e-16,1.790861 1.790861,4.05812251e-16 4,0 L28,0 Z M22.7159353,16 L21.0154635,16 L20.9523025,16.0067027 C20.8304743,16.0330532 20.7387012,16.1343137 20.7326407,16.2607843 C20.6690056,17.4446078 20.1599246,18.5529412 19.2902447,19.3970588 C18.3640002,20.2960784 17.0983684,20.8039216 15.7867779,20.8039216 C14.4645815,20.8039216 13.2201614,20.3029412 12.283311,19.3970588 C12.1701819,19.2872549 12.0605881,19.1705882 11.9580649,19.0504902 L11.9580649,19.0504902 L12.7747156,18.4362745 L12.8279922,18.3844368 C12.9458931,18.2344166 12.8729179,18.0012527 12.668657,17.952451 L12.668657,17.952451 L9.37023669,17.1803922 L9.30459226,17.1727453 C9.15364528,17.1725107 9.02333691,17.2914828 9.02024353,17.4446078 L9.02024353,17.4446078 L8.99903183,20.7181373 L9.00674229,20.783951 C9.05195504,20.9714069 9.28645045,21.0643628 9.45508351,20.9377451 L9.45508351,20.9377451 L10.1727462,20.3955882 L10.3491583,20.5995271 C11.6715464,22.0707142 13.6191874,23 15.7867779,23 C19.6720554,23 22.8432055,20.0181373 22.998758,16.2848039 C23.0058286,16.1303922 22.8750231,16 22.7159353,16 L22.7159353,16 Z M16.2112858,9 C12.3260083,9 9.15485816,11.9818627 8.99930565,15.7151961 C8.99223508,15.8696078 9.1230406,16 9.2821284,16 L9.2821284,16 L10.9826002,16 L11.0457612,15.9932973 C11.1675893,15.9669468 11.2593625,15.8656863 11.2654229,15.7392157 C11.3290581,14.5553922 11.838139,13.4470588 12.707819,12.6029412 C13.6340635,11.7039216 14.8996953,11.1960784 16.2112858,11.1960784 C17.5334822,11.1960784 18.7779023,11.6970588 19.7147526,12.6029412 C19.8278817,12.7127451 19.9374755,12.8294118 20.0399988,12.9495098 L20.0399988,12.9495098 L19.2233481,13.5637255 L19.1700715,13.6155632 C19.0521705,13.7655834 19.1251457,13.9987473 19.3294066,14.047549 L19.3294066,14.047549 L22.627827,14.8196078 L22.6934714,14.8272547 C22.8444184,14.8274893 22.9747267,14.7085172 22.9778201,14.5553922 L22.9778201,14.5553922 L22.9990318,11.2818627 L22.9913214,11.216049 C22.9461086,11.0285931 22.7116132,10.9356372 22.5429801,11.0622549 L22.5429801,11.0622549 L21.8253174,11.6044118 L21.6489053,11.4004729 C20.3265172,9.92928576 18.3788763,9 16.2112858,9 Z" id="形状结合" fill="#FFFFFF" fill-rule="nonzero"></path>
    </g>
</svg>