<?xml version="1.0" encoding="utf-8"?>
<!-- Generator: Adobe Illustrator 23.0.1, SVG Export Plug-In . SVG Version: 6.00 Build 0)  -->
<svg version="1.1" id="图层_1" xmlns="http://www.w3.org/2000/svg" xmlns:xlink="http://www.w3.org/1999/xlink" x="0px" y="0px"
	 viewBox="0 0 16 16" style="enable-background:new 0 0 16 16;" xml:space="preserve">
<path d="M15.2,6c-0.1-0.3-0.3-0.5-0.6-0.4c-0.5,0-0.9-0.2-1.2-0.6c-0.2-0.4-0.2-0.9,0-1.3c0.2-0.2,0.1-0.6-0.1-0.8
	c-1-1-2.2-1.7-3.5-2C9.5,0.7,9.2,0.9,9.1,1.1C8.9,1.5,8.5,1.8,8,1.8c-0.5,0-0.9-0.3-1.1-0.7C6.8,0.9,6.5,0.7,6.2,0.8
	c-1.3,0.3-2.6,1-3.5,2C2.4,3,2.4,3.4,2.6,3.6c0.3,0.4,0.3,0.9,0,1.3C2.4,5.3,1.9,5.6,1.5,5.5C1.2,5.5,0.9,5.7,0.8,6
	C0.6,6.6,0.5,7.3,0.5,8c0,0.7,0.1,1.4,0.3,2c0.1,0.3,0.3,0.5,0.6,0.4c0.5,0,0.9,0.2,1.2,0.6c0.2,0.4,0.2,0.9,0,1.3
	c-0.2,0.2-0.1,0.6,0.1,0.8c1,1,2.2,1.7,3.5,2c0.3,0.1,0.6-0.1,0.7-0.3c0.2-0.4,0.6-0.7,1.1-0.7c0.5,0,0.9,0.3,1.1,0.7
	c0.1,0.3,0.4,0.4,0.7,0.3c1.3-0.3,2.6-1,3.5-2c0.2-0.2,0.2-0.5,0.1-0.8c-0.3-0.4-0.3-0.9,0-1.3c0.2-0.4,0.7-0.7,1.2-0.6
	c0.3,0,0.6-0.2,0.6-0.4c0.2-0.7,0.3-1.3,0.3-2C15.5,7.3,15.4,6.6,15.2,6z M9.9,8C9.9,9,9,9.9,8,9.9C7,9.9,6.1,9,6.1,8
	C6.1,7,7,6.1,8,6.1C9,6.1,9.9,7,9.9,8z"/>
</svg>
