<?xml version="1.0" encoding="UTF-8"?>
<svg width="20px" height="20px" viewBox="0 0 20 20" version="1.1" xmlns="http://www.w3.org/2000/svg" xmlns:xlink="http://www.w3.org/1999/xlink">
    <title>icon/菜单/仓储/selected</title>
    <g id="icon/菜单/仓储/selected" stroke="none" stroke-width="1" fill="none" fill-rule="evenodd">
        <path d="M9.06772723,1.93011987 C9.62502662,1.53056468 10.3749734,1.53056468 10.9322728,1.93011987 L10.9322728,1.93011987 L17.4322728,6.59028784 C17.8514088,6.89078699 18.1,7.37489401 18.1,7.89062144 L18.1,7.89062144 L18.1,16 C18.1,16.8836556 17.3836556,17.6 16.5,17.6 L16.5,17.6 L3.5,17.6 C2.6163444,17.6 1.9,16.8836556 1.9,16 L1.9,16 L1.9,7.89062144 C1.9,7.37489401 2.14859116,6.89078699 2.56772723,6.59028784 L2.56772723,6.59028784 Z M7,13 L5,13 L5,15 L7,15 L7,13 Z M11,13 L9,13 L9,15 L11,15 L11,13 Z M7,9 L5,9 L5,11 L7,11 L7,9 Z" id="形状结合" fill="#FFFFFF" fill-rule="nonzero"></path>
    </g>
</svg>