<?xml version="1.0" encoding="utf-8"?>
<!-- Generator: Adobe Illustrator 23.0.1, SVG Export Plug-In . SVG Version: 6.00 Build 0)  -->
<svg version="1.1" id="图层_1" xmlns="http://www.w3.org/2000/svg" xmlns:xlink="http://www.w3.org/1999/xlink" x="0px" y="0px"
	 viewBox="0 0 16 16" style="enable-background:new 0 0 16 16;" xml:space="preserve">
<style type="text/css">
	.st0{fill-rule:evenodd;clip-rule:evenodd;fill:none;}
	.st1{filter:url(#Adobe_OpacityMaskFilter);}
	.st2{fill-rule:evenodd;clip-rule:evenodd;fill:#FFFFFF;}
	.st3{mask:url(#mask-2_2_);fill-rule:evenodd;clip-rule:evenodd;fill-opacity:0.8;}
</style>
<rect x="0" y="0" class="st0" width="16" height="16"/>
<g id="页面-1">
	<g id="商品列表-首页-copy-32" transform="translate(-21.000000, -469.000000)">
		<g id="分组-copy-63" transform="translate(21.000000, 469.000000)">
			<defs>
				<filter id="Adobe_OpacityMaskFilter" filterUnits="userSpaceOnUse" x="0" y="0" width="16" height="16">
					<feColorMatrix  type="matrix" values="1 0 0 0 0  0 1 0 0 0  0 0 1 0 0  0 0 0 1 0"/>
				</filter>
			</defs>
			<mask maskUnits="userSpaceOnUse" x="0" y="0" width="16" height="16" id="mask-2_2_">
				<g class="st1">
					<polygon id="path-1_2_" class="st2" points="0,0 16,0 16,16 0,16 					"/>
				</g>
			</mask>
			<path id="Fill-1" class="st3" d="M3.1,11.1h6.8c0.3,0,0.6,0.3,0.6,0.6c0,0.3-0.3,0.6-0.6,0.6H3.1c-0.3,0-0.6-0.3-0.6-0.6
				C2.5,11.3,2.7,11.1,3.1,11.1L3.1,11.1z M3.1,7.4h6.8c0.3,0,0.6,0.3,0.6,0.6c0,0.3-0.3,0.6-0.6,0.6H3.1C2.7,8.6,2.5,8.3,2.5,8
				C2.5,7.7,2.7,7.4,3.1,7.4L3.1,7.4z M3.1,3.7h6.8c0.3,0,0.6,0.3,0.6,0.6c0,0.3-0.3,0.6-0.6,0.6H3.1c-0.3,0-0.6-0.3-0.6-0.6
				C2.5,4,2.7,3.7,3.1,3.7L3.1,3.7z M11.9,14.8c-0.1-0.3-0.2-0.6-0.2-0.9V8.6c0,0,0-0.1,0-0.1V1.2H1.2l0,13.5H11.9z M14.8,13.8V8.6
				h-1.8v5.2c0,0.5,0.4,0.9,0.9,0.9S14.8,14.4,14.8,13.8L14.8,13.8z M1.2,0h10.5c0.7,0,1.2,0.6,1.2,1.2v6.2h1.8
				c0.7,0,1.2,0.6,1.2,1.2v5.2c0,1.2-1,2.2-2.2,2.2c-0.1,0-0.2,0-0.3,0H1.2C0.5,16,0,15.4,0,14.8V1.2C0,0.6,0.5,0,1.2,0L1.2,0z"/>
		</g>
	</g>
</g>
</svg>
