<?xml version="1.0" encoding="utf-8"?>
<!-- Generator: Adobe Illustrator 23.0.1, SVG Export Plug-In . SVG Version: 6.00 Build 0)  -->
<svg version="1.1" id="图层_1" xmlns="http://www.w3.org/2000/svg" xmlns:xlink="http://www.w3.org/1999/xlink" x="0px" y="0px"
	 viewBox="0 0 14 14" style="enable-background:new 0 0 14 14;" xml:space="preserve">
<g>
	<path class="st2" d="M13.9,7C13.9,3.1,10.8,0,7,0C3.2,0,0.1,3.1,0.1,7c0,0,0,0,0,0c0,3.8,3.1,6.9,6.9,6.9
		C10.8,13.9,13.9,10.8,13.9,7C13.9,7,13.9,7,13.9,7z M10.9,10.8c-1,1-2.4,1.6-3.9,1.6C4,12.4,1.5,10,1.5,7c0,0,0,0,0,0
		C1.6,4,4,1.5,7,1.5c3,0,5.4,2.4,5.5,5.4c0,0,0,0,0,0C12.5,8.4,11.9,9.8,10.9,10.8z"/>
	<polygon class="st2" points="3.2,7 3.2,7.8 10.9,7.8 10.9,7 10.9,6.1 3.2,6.1 	"/>
</g>
</svg>
