<?xml version="1.0" encoding="UTF-8"?>
<svg width="14px" height="16px" viewBox="0 0 14 16" version="1.1" xmlns="http://www.w3.org/2000/svg" xmlns:xlink="http://www.w3.org/1999/xlink">
    <!-- Generator: Sketch 53.2 (72643) - https://sketchapp.com -->
    <title>分组</title>
    <desc>Created with Sketch.</desc>
    <defs>
        <polygon id="path-1" points="0 0 14 0 14 16 0 16"></polygon>
    </defs>
    <g id="页面-1" stroke="none" stroke-width="1" fill="none" fill-rule="evenodd">
        <g id="商品列表-首页-copy-72" transform="translate(-1835.000000, -379.000000)">
            <g id="分组" transform="translate(1835.000000, 379.000000)">
                <mask id="mask-2" fill="white">
                    <use xlink:href="#path-1"></use>
                </mask>
                <g id="Clip-2"></g>
                <path d="M9.04862586,3.33869174 C9.42070546,3.5616984 9.54806082,4.05559874 9.33340814,4.44195721 L8.28651348,6.32376528 L9.33340814,6.32376528 C9.76293791,6.32376528 10.1112296,6.68530638 10.1112296,7.13131971 C10.1112296,7.57744956 9.76293791,7.93899067 9.33340814,7.93899067 L7.77776531,7.93899067 L7.77776531,8.7465451 L9.33340814,8.7465451 C9.76293791,8.7465451 10.1112296,9.10820273 10.1112296,9.55421606 C10.1112296,10.0002294 9.76293791,10.3617705 9.33340814,10.3617705 L7.77776531,10.3617705 L7.77776531,11.1694414 C7.77776531,11.6154548 7.42958587,11.9772289 7.0000561,11.9772289 C6.57052633,11.9772289 6.22223469,11.6154548 6.22223469,11.1694414 L6.22223469,10.3617705 L4.66670407,10.3617705 C4.2371743,10.3617705 3.88899486,10.0002294 3.88899486,9.55421606 C3.88899486,9.10820273 4.2371743,8.7465451 4.66670407,8.7465451 L6.22223469,8.7465451 L6.22223469,7.93899067 L4.66670407,7.93899067 C4.2371743,7.93899067 3.88899486,7.57744956 3.88899486,7.13131971 C3.88899486,6.68530638 4.2371743,6.32376528 4.66670407,6.32376528 L5.69811411,6.32376528 L4.6518927,4.44195721 C4.45474437,4.08705736 4.54462246,3.63510185 4.86115942,3.39042369 L4.93667498,3.33869174 C5.27834638,3.13397768 5.71359873,3.22730492 5.94923418,3.55598924 L5.99905425,3.63440277 L6.9923138,5.42078636 L7.98624658,3.63440277 C8.20101147,3.2480443 8.67677067,3.11568507 9.04862586,3.33869174 L9.04862586,3.33869174 Z M11.6667602,1.61522539 L2.33335203,1.61522539 C1.93905537,1.6153419 1.60725821,1.92165566 1.56102878,2.32840397 L1.55564283,2.42289634 L1.55564283,13.6666733 L2.55271742,13.2062123 C3.10387997,12.9523296 3.72808951,12.929726 4.29496109,13.1431786 L4.44745089,13.2071445 L7.0000561,14.3838134 L9.55277353,13.2062123 C10.1035995,12.9518636 10.7279212,12.9286774 11.2950172,13.1417804 L11.4473948,13.2062123 L12.4444694,13.6658577 L12.4444694,2.42289634 C12.4444694,2.01335171 12.149364,1.66882156 11.7577603,1.62081803 L11.6667602,1.61522539 Z M11.6667602,0 C12.9553495,0 14,1.08485635 14,2.42289634 L14,14.1640691 C14,14.6015769 13.7870304,15.0093739 13.4335773,15.2477603 C13.0803485,15.4860302 12.6349975,15.5224989 12.250014,15.3449325 L10.8157796,14.6825538 C10.6148162,14.5899256 10.3853521,14.5899256 10.1842765,14.6825538 L7.63167133,15.8609704 C7.22952015,16.0463432 6.77059205,16.0463432 6.36844088,15.8609704 L3.81583566,14.6834859 C3.61487228,14.5907412 3.38529603,14.5907412 3.18422044,14.6834859 L1.75009818,15.3449325 C1.36511473,15.5224989 0.919651516,15.4860302 0.566422749,15.2477603 C0.213193982,15.0093739 0,14.6015769 0,14.1640691 L0,2.42289634 C0,1.08485635 1.04476272,0 2.33335203,0 L11.6667602,0 Z" id="Fill-1" fill-opacity="0.85" fill="#000000" mask="url(#mask-2)"></path>
            </g>
        </g>
    </g>
</svg>