<svg viewBox="0 0 44 44" xmlns="http://www.w3.org/2000/svg" fill-rule="evenodd" clip-rule="evenodd" stroke-linejoin="round" stroke-miterlimit="2"><path d="M13.16 5h27.772c1.061 0 1.92.86 1.92 1.921V37.65a1.92 1.92 0 0 1-1.92 1.921H13.16a1.921 1.921 0 0 1-1.598-.855L1.323 23.351a1.92 1.92 0 0 1 0-2.132L11.562 5.855A1.921 1.921 0 0 1 13.16 5zm12.412 14.57l-5.429-5.434-2.717 2.718 5.432 5.431-5.432 5.432 2.717 2.717 5.429-5.433 5.43 5.433 2.717-2.717-5.432-5.432 5.432-5.431-2.717-2.718-5.43 5.434z" fill-rule="nonzero"/></svg>