<?xml version="1.0" encoding="utf-8"?>
<!-- Generator: Adobe Illustrator 25.2.0, SVG Export Plug-In . SVG Version: 6.00 Build 0)  -->
<svg version="1.1" id="图层_1" xmlns="http://www.w3.org/2000/svg" xmlns:xlink="http://www.w3.org/1999/xlink" x="0px" y="0px"
	 viewBox="0 0 14 14" style="enable-background:new 0 0 14 14;" xml:space="preserve">
<style type="text/css">
	.st0{filter:url(#Adobe_OpacityMaskFilter);}
	.st1{fill-rule:evenodd;clip-rule:evenodd;fill:#FFFFFF;}
	.st2{mask:url(#mask-2_1_);fill-rule:evenodd;clip-rule:evenodd;fill:#55A3F2;}
</style>
<g id="页面-1">
	<g id="编组备份">
		<defs>
			<filter id="Adobe_OpacityMaskFilter" filterUnits="userSpaceOnUse" x="0" y="0" width="14" height="14">
				<feColorMatrix  type="matrix" values="1 0 0 0 0  0 1 0 0 0  0 0 1 0 0  0 0 0 1 0"/>
			</filter>
		</defs>
		<mask maskUnits="userSpaceOnUse" x="0" y="0" width="14" height="14" id="mask-2_1_">
			<g class="st0">
				<polygon id="path-1_1_" class="st1" points="0,0 14,0 14,14 0,14 				"/>
			</g>
		</mask>
		<path id="Fill-1" class="st2" d="M12.5,8.9l1,0.5c0.3,0.1,0.4,0.4,0.4,0.7c0,0.3-0.2,0.6-0.4,0.7l-6.2,3.1c-0.2,0.1-0.5,0.1-0.7,0
			l-6.2-3.1C0.2,10.7,0,10.4,0,10.1s0.2-0.6,0.4-0.7l1-0.5l5.2,2.6c0.2,0.1,0.5,0.1,0.7,0L12.5,8.9z M12.5,5.7l1,0.5
			c0.3,0.1,0.4,0.4,0.4,0.7s-0.2,0.6-0.4,0.7l-6.2,3.1c-0.2,0.1-0.5,0.1-0.7,0L0.4,7.6C0.2,7.5,0,7.2,0,6.9c0-0.3,0.2-0.6,0.4-0.7
			l1-0.5l5.2,2.6c0.2,0.1,0.5,0.1,0.7,0L12.5,5.7z M7.4,0.1l6.2,3.1C13.8,3.3,14,3.6,14,3.9c0,0.3-0.2,0.6-0.4,0.7L7.4,7.6
			c-0.2,0.1-0.5,0.1-0.7,0L0.5,4.6C0.2,4.5,0.1,4.2,0.1,3.9c0-0.3,0.2-0.6,0.4-0.7l6.2-3.1C6.9,0,7.2,0,7.4,0.1L7.4,0.1z"/>
	</g>
</g>
</svg>
