<svg width="18" height="18" viewBox="0 0 18 18" xmlns="http://www.w3.org/2000/svg"><g fill-rule="nonzero" fill="none"><path d="M0 0h18v18H0z"/><g fill="#000"><path d="M15.845 4.94l-3.008-2.794A.553.553 0 0 0 12.458 2a.553.553 0 0 0-.378.146L3.894 9.743a.45.45 0 0 0-.158.26l-.728 3.45c-.03.15.02.302.135.41a.514.514 0 0 0 .44.13l3.752-.601c.11-.01.22-.055.304-.134l8.204-7.618a.471.471 0 0 0 .002-.7zM7.049 12.5l-2.93.47.567-2.651 5.762-5.35 2.355 2.188L7.05 12.5zm6.46-5.998L11.15 4.314l1.305-1.212 2.357 2.188-1.305 1.212zM15.483 16H3.515A.508.508 0 0 1 3 15.5c0-.276.23-.5.515-.5h11.97c.284 0 .515.224.515.5a.51.51 0 0 1-.517.5z"/></g></g></svg>