<svg width="18" height="18" viewBox="0 0 18 18" xmlns="http://www.w3.org/2000/svg"><g fill="none" fill-rule="evenodd"><path d="M3.1 17c-.6 0-1.1-.21-1.5-.632-.4-.42-.6-.947-.6-1.579v-3.052c0-.21.1-.421.2-.526.1-.106.3-.211.5-.211s.4.105.5.21c.1.106.2.316.2.527v3.052c0 .211.1.527.2.632.1.105.3.21.6.21h11.6c.2 0 .5-.105.6-.21.1-.105.2-.316.2-.632v-3.052c0-.21.1-.421.2-.526.1-.106.3-.211.5-.211s.4.105.5.21c.1.106.2.316.2.527v3.052c0 .632-.2 1.158-.6 1.58-.4.42-.9.631-1.5.631H3.1z" fill="#000" fill-rule="nonzero"/><path d="M9.372 11.904a.742.742 0 0 0 .186-.478v-8.13c0-.096.093-.096.093-.096h.093l2.233 2.391c.093.096.186.287.372.287a.7.7 0 0 0 .465-.191.742.742 0 0 0 .186-.478.742.742 0 0 0-.186-.479L9.558 1.191A.7.7 0 0 0 9.093 1c-.186 0-.372.096-.558.287L5.186 4.73A.742.742 0 0 0 5 5.21c0 .095.093.191.28.382a.7.7 0 0 0 .464.192s.28-.096.372-.192L8.256 3.2h.093c.093 0 .093.096.093.096v8.034c0 .192.093.383.186.479a.7.7 0 0 0 .465.191c.093 0 .186 0 .28-.096z" fill="#000" fill-rule="nonzero"/><path d="M0 0h18v18H0z"/></g></svg>