<?xml version="1.0" encoding="utf-8"?>
<!-- Generator: Adobe Illustrator 23.0.1, SVG Export Plug-In . SVG Version: 6.00 Build 0)  -->
<svg version="1.1" id="图层_1" xmlns="http://www.w3.org/2000/svg" xmlns:xlink="http://www.w3.org/1999/xlink" x="0px" y="0px"
	 viewBox="0 0 14 15" style="enable-background:new 0 0 14 15;" xml:space="preserve">
<title>分组</title>
<desc>Created with Sketch.</desc>
<g id="Clip-2">
</g>
<g>
	<path d="M13,7.2c-0.4,0-0.8,0.3-0.8,0.8v5.1H1.7V8c0-0.5-0.3-0.8-0.8-0.8C0.5,7.2,0.2,7.7,0.2,8v5.9c0,0.5,0.3,0.8,0.8,0.8h12
		c0.4,0,0.8-0.3,0.8-0.8V8C13.7,7.7,13.4,7.2,13,7.2z"/>
	<path d="M3.5,4.5c0.3,0.1,0.7,0.2,1.1-0.2l1.5-1.5v8c0,0.2,0.1,0.4,0.2,0.6c0.2,0.1,0.3,0.2,0.6,0.2c0,0,0,0,0,0
		c0.5,0,0.8-0.3,0.8-0.8v-8l1.5,1.5c0.1,0.1,0.4,0.3,0.6,0.3c0.1,0,0.4,0,0.6-0.2c0.2-0.2,0.2-0.3,0.2-0.6s-0.1-0.4-0.2-0.6l-3-3
		C7.4,0.2,7.2,0.2,7.1,0.2H7c-0.2,0-0.3,0-0.5,0.1l-3.1,3C3.3,3.4,3.2,3.6,3.2,3.9C3.2,4.1,3.3,4.3,3.5,4.5L3.5,4.5z"/>
</g>
</svg>
