<?xml version="1.0" encoding="UTF-8"?>
<svg width="18px" height="18px" viewBox="0 0 18 18" version="1.1" xmlns="http://www.w3.org/2000/svg" xmlns:xlink="http://www.w3.org/1999/xlink">
    <title>fall</title>
    <g id="切图管理" stroke="none" stroke-width="1" fill="none" fill-rule="evenodd">
        <g id="下降" fill-rule="nonzero">
            <g id="fall">
                <rect id="矩形" fill="#000000" opacity="0" x="0" y="0" width="18" height="18"></rect>
                <path d="M15.4671875,13.5625 L15.0921875,10.45 C15.0796875,10.346875 14.953125,10.303125 14.8796875,10.3765625 L13.953125,11.3046875 L9.7140625,7.0671875 C9.615625,6.9703125 9.4578125,6.9703125 9.3609375,7.0671875 L7.7703125,8.65625 L3.446875,4.3328125 C3.3984375,4.284375 3.31875,4.284375 3.2703125,4.3328125 L2.5671875,5.0390625 C2.51875,5.0875 2.51875,5.1671875 2.5671875,5.215625 L7.59375,10.2453125 C7.690625,10.34375 7.85,10.34375 7.946875,10.2453125 L9.5375,8.65625 L13.0703125,12.1875 L12.14375,13.1140625 C12.0703125,13.1875 12.1140625,13.3140625 12.2171875,13.3265625 L15.3296875,13.7015625 C15.409375,13.7125 15.478125,13.64375 15.4671875,13.5625 L15.4671875,13.5625 Z" id="路径" fill="#E04B20"></path>
            </g>
        </g>
    </g>
</svg>