<?xml version="1.0" encoding="utf-8"?>
<!-- Generator: Adobe Illustrator 23.0.1, SVG Export Plug-In . SVG Version: 6.00 Build 0)  -->
<svg version="1.1" id="图层_1" xmlns="http://www.w3.org/2000/svg" xmlns:xlink="http://www.w3.org/1999/xlink" x="0px" y="0px"
	 viewBox="0 0 16.2 15.9" style="enable-background:new 0 0 16.2 15.9;" xml:space="preserve">
<g>
	<path d="M8.1,0.2c-4.3,0-7.7,3.5-7.7,7.7c0,4.2,3.5,7.7,7.7,7.7c4.3,0,7.7-3.5,7.7-7.7C15.8,3.7,12.4,0.2,8.1,0.2z M8.1,14.4
		c-3.5,0-6.4-2.8-6.4-6.4c0-3.5,2.8-6.4,6.4-6.4c3.5,0,6.4,2.8,6.4,6.4C14.5,11.6,11.6,14.4,8.1,14.4z"/>
	<path d="M11.6,4.5c0-0.2-0.1-0.3-0.2-0.5c-0.3-0.3-0.8-0.3-1-0.1L8.1,6.2L5.8,3.9c-0.2-0.2-0.7-0.2-1,0C4.7,4,4.5,4.3,4.5,4.4
		c0,0.2,0.1,0.3,0.2,0.5l1.6,1.6H5.1c-0.3,0-0.7,0.3-0.7,0.7c0,0.3,0.3,0.7,0.7,0.7h2.2v1.1H5.1C4.8,9.1,4.4,9.4,4.4,9.7
		c0,0.3,0.3,0.7,0.7,0.7h2.2v1.8c0,0.3,0.3,0.7,0.7,0.7s0.7-0.3,0.7-0.7v-1.8h2.2c0.3,0,0.7-0.3,0.7-0.7c0-0.3-0.1-0.7-0.6-0.7H8.8
		V7.9h2.2c0.3,0,0.7-0.3,0.7-0.7s-0.3-0.7-0.7-0.7H9.8L11.4,5C11.5,4.8,11.6,4.6,11.6,4.5z"/>
</g>
</svg>
