<?xml version="1.0" encoding="UTF-8"?>
<svg width="440px" height="264px" viewBox="0 0 440 264" version="1.1" xmlns="http://www.w3.org/2000/svg" xmlns:xlink="http://www.w3.org/1999/xlink">
    <title>切片</title>
    <defs>
        <linearGradient x1="74.3534153%" y1="100%" x2="74.3534153%" y2="-11.4822364%" id="linearGradient-1">
            <stop stop-color="#000000" stop-opacity="0" offset="0%"></stop>
            <stop stop-color="#000000" stop-opacity="0.08" offset="100%"></stop>
        </linearGradient>
        <linearGradient x1="74.3534153%" y1="100%" x2="74.3534153%" y2="-11.4822364%" id="linearGradient-2">
            <stop stop-color="#000000" stop-opacity="0" offset="0%"></stop>
            <stop stop-color="#000000" stop-opacity="0.08" offset="100%"></stop>
        </linearGradient>
        <linearGradient x1="44.7160457%" y1="55.6128999%" x2="52.4113582%" y2="43.1316684%" id="linearGradient-3">
            <stop stop-color="#000000" stop-opacity="0" offset="0%"></stop>
            <stop stop-color="#000000" stop-opacity="0.08" offset="100%"></stop>
        </linearGradient>
        <linearGradient x1="89.7047381%" y1="45.910347%" x2="45.4119234%" y2="54.3533195%" id="linearGradient-4">
            <stop stop-color="#EEEEEE" stop-opacity="0" offset="0%"></stop>
            <stop stop-color="#D8D8D8" offset="100%"></stop>
        </linearGradient>
        <linearGradient x1="105.282002%" y1="50%" x2="-4.32077621%" y2="50%" id="linearGradient-5">
            <stop stop-color="#F2F2F2" offset="0%"></stop>
            <stop stop-color="#DCDCDC" offset="86.0778477%"></stop>
            <stop stop-color="#B1B1B1" offset="100%"></stop>
        </linearGradient>
        <linearGradient x1="63.0013436%" y1="50%" x2="155.12291%" y2="50%" id="linearGradient-6">
            <stop stop-color="#F7F7F7" offset="0%"></stop>
            <stop stop-color="#C3C3C3" offset="100%"></stop>
            <stop stop-color="#BFBFBF" offset="100%"></stop>
        </linearGradient>
        <linearGradient x1="-7.34953861%" y1="50%" x2="59.830812%" y2="50%" id="linearGradient-7">
            <stop stop-color="#EEEEEE" stop-opacity="0" offset="0%"></stop>
            <stop stop-color="#BBBBBB" offset="100%"></stop>
        </linearGradient>
        <linearGradient x1="-7.34953861%" y1="50%" x2="59.830812%" y2="50%" id="linearGradient-8">
            <stop stop-color="#EEEEEE" stop-opacity="0" offset="0%"></stop>
            <stop stop-color="#BBBBBB" offset="100%"></stop>
        </linearGradient>
        <linearGradient x1="50%" y1="50%" x2="87.7558866%" y2="-40.7142069%" id="linearGradient-9">
            <stop stop-color="#F2F2F2" offset="0%"></stop>
            <stop stop-color="#D7D6D6" offset="100%"></stop>
        </linearGradient>
        <linearGradient x1="33.5516398%" y1="44.4029623%" x2="109.548987%" y2="37.5659336%" id="linearGradient-10">
            <stop stop-color="#EFEFEF" offset="0%"></stop>
            <stop stop-color="#D1D1D1" offset="100%"></stop>
        </linearGradient>
    </defs>
    <g id="pc端入口" stroke="none" stroke-width="1" fill="none" fill-rule="evenodd">
        <g id="登录首页-多个企业" transform="translate(-1286.000000, -309.000000)" fill-rule="nonzero">
            <g id="删除" transform="translate(1286.000000, 309.000000)">
                <g id="Group" transform="translate(27.280000, 48.400000)">
                    <path d="M50.8330581,33.44 C52.2472564,33.44 53.788537,34.0561993 55.3322673,36.4664261 C61.7905215,46.5497012 68.2977131,73.5336309 65.7789407,82.3498978 C64.1545591,88.0355967 60.278983,90.8784461 54.1522121,90.8784461 L54.1514424,103.60879 C63.8712685,105.400184 74.6856198,105.853839 84.3565926,107.150821 L84.3555028,98.8664999 C80.0500267,98.9478473 77.0268925,96.5793638 75.2861001,91.7610494 C73.2434877,86.1073318 78.0130468,66.7233691 82.6137015,59.4293721 C83.7275248,57.6634879 84.8371129,57.2 85.8467541,57.2 C86.846066,57.2 87.9351778,57.646998 89.0260206,59.3954038 C93.5896028,66.7099258 98.1877655,86.2843743 96.4079308,92.6797943 C95.2600976,96.8042647 92.5215076,98.8664999 88.1921607,98.8664999 L88.1925629,107.725434 C90.2472537,108.069997 92.2317811,108.469778 94.1221875,108.948125 C104.772708,111.643125 114.622865,115.547552 123.672656,120.661406 L0,120.661406 L13.3821875,104.17 C21.4797917,96.4890972 30.5152604,94.9529167 40.4885938,99.5614583 C43.0328942,100.737145 45.8010109,101.667505 48.7218106,102.421866 L48.7226809,90.8784461 C42.6296913,90.9905859 38.3514361,87.7255646 35.8879153,81.0833821 C32.9972672,73.2895728 39.7470141,46.5682331 46.2577323,36.5132523 C47.8339839,34.0789311 49.4042421,33.44 50.8330581,33.44 Z" id="Combined-Shape" fill="url(#linearGradient-1)"></path>
                    <path d="M293.951026,53.68 C295.078061,53.68 296.306373,54.1711429 297.536637,56.0922191 C302.683495,64.1291141 307.869352,85.6367104 305.862036,92.663734 C304.567497,97.1955319 301.478885,99.4614308 296.596201,99.4614308 L296.596079,109.608268 C307.091511,111.542804 319.188194,111.519989 328.449975,113.863905 C336.937828,116.011961 344.787836,119.123992 352,123.2 L253.44,123.2 L264.104834,110.055491 C270.55816,103.933412 277.758909,102.708996 285.707082,106.382243 C287.734926,107.319411 289.94117,108.061006 292.26911,108.662299 L292.269177,99.4614308 C287.413414,99.550812 284.003891,96.9484201 282.040606,91.654255 C279.736926,85.4421834 285.116086,64.143885 290.304754,56.129542 C291.560936,54.1892614 292.812342,53.68 293.951026,53.68 Z" id="Combined-Shape" fill="url(#linearGradient-2)"></path>
                    <ellipse id="Oval" fill="url(#linearGradient-3)" transform="translate(192.720000, 171.600000) scale(-1, 1) translate(-192.720000, -171.600000) " cx="192.72" cy="171.6" rx="114.4" ry="29.92"></ellipse>
                    <path d="M92.1078166,146.284716 C113.572818,147.277171 126.607532,148.342663 131.211957,149.481191 C143.655267,152.558028 152.825801,155.890774 158.723559,159.479429 L121.122895,173.77293 L118.131088,174.239355 L89.2456641,174.239355 L92.1078166,146.284716 Z" id="Rectangle-3" fill="url(#linearGradient-4)" transform="translate(123.984611, 160.262036) scale(-1, 1) translate(-123.984611, -160.262036) "></path>
                    <path d="M118.799106,10.56 L238.343359,10.56 L238.343359,20.8407031 L258.72,20.8407031 L258.72,174.24 L130.356875,174.24 C127.193659,174.24 124.54127,173.191706 122.399707,171.095117 C120.258145,168.998529 119.057944,166.426276 118.799106,163.378359 L118.799106,10.56 Z" id="Rectangle-5" fill="url(#linearGradient-5)"></path>
                    <g id="Group-2" transform="translate(120.560000, 0.880000)">
                        <path d="M9.68,19.36 C4.33388362,19.36 6.54710431e-16,15.0261164 0,9.68 C-6.54710431e-16,4.33388362 4.33388362,9.82065647e-16 9.68,0 L138.16,0 C133.731641,2.50869599 131.517461,5.74003086 131.517461,9.69400463 C131.517461,13.6479784 133.731641,16.8699769 138.16,19.36 L9.68,19.36 Z" id="Combined-Shape" fill="url(#linearGradient-6)"></path>
                        <path d="M17.6,6.16 L132.177971,6.16 C132.071659,6.44148112 131.978578,6.71497721 131.898728,6.98048828 C131.818878,7.24599935 131.745356,7.55916992 131.678164,7.92 L17.6,7.92 L17.6,6.16 Z" id="Rectangle-6" fill="url(#linearGradient-7)" opacity="0.399051339"></path>
                        <path d="M23.76,11.44 L132.177971,11.44 C132.071659,11.7214811 131.978578,11.9949772 131.898728,12.2604883 C131.818878,12.5259993 131.745356,12.8391699 131.678164,13.2 L23.76,13.2 L23.76,11.44 Z" id="Rectangle-6" fill="url(#linearGradient-8)" opacity="0.399051339" transform="translate(77.968986, 12.320000) scale(1, -1) translate(-77.968986, -12.320000) "></path>
                    </g>
                    <path d="M257.395836,19.36 C258.127152,19.36 258.72,19.9509841 258.72,20.68 C258.72,21.4090159 258.127152,22 257.395836,22 L132.04164,22 C124.781415,22 118.8,17.1415809 118.8,11 C118.8,4.85841906 124.781415,0 132.04164,0 L257.395836,0 C258.127152,0 258.72,0.59098413 258.72,1.32 C258.72,2.04901587 258.127152,2.64 257.395836,2.64 L132.04164,2.64 C126.138185,2.64 121.448328,6.44934818 121.448328,11 C121.448328,15.5506518 126.138185,19.36 132.04164,19.36 L257.395836,19.36 Z" id="Rectangle-4" fill="#C4C4C4"></path>
                    <path d="M141.68,16.72 L163.68,16.72 C164.652021,16.72 165.44,17.5079788 165.44,18.48 L165.44,59.7078936 C165.44,60.6799148 164.652021,61.4678936 163.68,61.4678936 C163.185976,61.4678936 162.714697,61.2602628 162.38128,60.8957181 L152.562266,50.16 L152.562266,50.16 L142.989572,60.8213427 C142.340168,61.5445994 141.227407,61.6044691 140.504151,60.9550655 C140.132372,60.6212496 139.92,60.145146 139.92,59.6454936 L139.92,18.48 C139.92,17.5079788 140.707979,16.72 141.68,16.72 Z" id="Rectangle-7" fill="url(#linearGradient-9)"></path>
                    <g id="Group-3" transform="translate(216.988701, 122.055462) rotate(-315.000000) translate(-216.988701, -122.055462) translate(153.259924, 76.553208)" fill="#BDBDBD">
                        <path d="M45.502254,-1.42108547e-14 C69.2722871,-1.42108547e-14 88.7853011,18.2264651 90.827944,41.466043 L118.733768,41.4667619 L127.457552,50.1897401 L90.7663742,50.1861019 C88.4216731,73.1157722 69.0510326,91.0045079 45.502254,91.0045079 C20.372053,91.0045079 0,70.6324549 0,45.502254 C0,20.372053 20.372053,-1.42108547e-14 45.502254,-1.42108547e-14 Z" id="Combined-Shape"></path>
                    </g>
                    <g id="Group-3" transform="translate(223.873913, 121.793913) rotate(-315.000000) translate(-223.873913, -121.793913) translate(160.999246, 80.873913)">
                        <rect id="Rectangle-8" fill="#FFFFFF" x="80.08" y="36.96" width="45.6693333" height="7.92" rx="1.76"></rect>
                        <circle id="Oval-5" stroke="#FFFFFF" stroke-width="7.92" fill="url(#linearGradient-10)" cx="40.92" cy="40.92" r="40.92"></circle>
                    </g>
                </g>
            </g>
        </g>
    </g>
</svg>