<?xml version="1.0" encoding="utf-8"?>
<!-- Generator: Adobe Illustrator 23.0.1, SVG Export Plug-In . SVG Version: 6.00 Build 0)  -->
<svg version="1.1" id="图层_1" xmlns="http://www.w3.org/2000/svg" xmlns:xlink="http://www.w3.org/1999/xlink" x="0px" y="0px"
	 viewBox="0 0 14 15" style="enable-background:new 0 0 14 15;" xml:space="preserve">
<g>
	<path d="M12.1,0.2H1.9c-0.4,0-0.8,0.2-1.2,0.5S0.2,1.5,0.2,1.9V13c0,0.4,0.2,0.8,0.5,1.2c0.3,0.3,0.7,0.5,1.2,0.5h5.9
		c1.6,0,3-0.6,4.2-1.7s1.8-2.5,1.8-4V1.8C13.8,0.9,13,0.2,12.1,0.2z M12.6,9.2c0,2.4-2.1,4.4-4.7,4.4h-6c-0.2,0-0.4-0.2-0.4-0.4V1.9
		c0-0.2,0.2-0.4,0.4-0.4h10.2c0.1,0,0.2,0,0.4,0.1c0.1,0.1,0.1,0.2,0.1,0.3V9.2z"/>
	<path d="M9.8,9.4H4.2c-0.3,0-0.6,0.3-0.6,0.6s0.3,0.6,0.6,0.6h5.6c0.2,0,0.4-0.1,0.5-0.3s0.1-0.4,0-0.6S10,9.4,9.8,9.4z"/>
	<path d="M4.2,8h3c0.3,0,0.6-0.3,0.6-0.6c0-0.4-0.3-0.6-0.7-0.6H4.2C3.9,6.7,3.6,7,3.6,7.3S3.9,8,4.2,8z"/>
	<path d="M9.8,3.9H4.2c-0.3,0-0.6,0.3-0.6,0.6S3.9,5,4.2,5h5.6c0.2,0,0.4-0.1,0.5-0.2c0.1-0.2,0.1-0.4,0-0.6S10,3.9,9.8,3.9z"/>
</g>
</svg>
