<svg t="1606200570811" class="icon" viewBox="0 0 1806 1024" version="1.1"
  xmlns="http://www.w3.org/2000/svg" p-id="871" width="32" height="32">
  <path d="M1337.19739731 186.89497409l-397.54431421-158.4409126c-28.80743926-11.5229757-59.05608001-11.5229757-87.86351931 0L506.09697785 166.72810417c-44.65236038 17.28446355-73.45979967 61.93682397-73.45979966 109.46992828v541.58316961c0 14.40371964 8.6438942 27.36789851 23.04594974 33.12938636l427.79461907 171.40508981c4.32194711 1.43954076 8.64223179 2.88074393 12.96251647 2.88074391 4.32194711 0 8.6438942-1.44120319 12.96417886-2.88074391l427.79295498-171.40508981c14.40371964-5.76148785 23.04595142-18.72566674 23.0459514-33.12938636v-597.75850569c0-14.40371964-8.64223179-27.36789851-23.0459514-33.12938469z m-93.62500548 151.23988399v417.71118245c0 4.32194711-2.88074393 8.6438942-7.20102859 10.08343495l-266.47130014 106.58752194c-2.88074393 1.44120319-7.20102862 1.44120319-10.08177252-1.43954079-2.88074393-1.44120319-4.32194711-5.76148785-4.3219471-10.08343326V443.28283926c0-4.32194711 2.88074393-8.64223179 7.20269102-10.08177256l266.46963771-106.58918432c1.44120319 0 2.88074393-1.43954076 4.32194709-1.43954076 2.88074393 0 4.32194711 0 5.76148787 1.43954076 2.88074393 4.32194711 4.32194711 7.20269104 4.32194541 11.5229757z m-116.67095854-103.70677967c0 1.44120319 0 7.20269104-7.2010286 10.08343497l-218.93985656 87.86185686c-2.87908149 1.44120319-5.75982542 1.44120319-8.64056936 0l-218.93985821-87.86185686c-7.20102862-2.88074393-7.20102862-8.6438942-7.20102861-10.08343497 0-1.43954076 0-7.20102862 7.20269103-10.08177253l218.93819579-87.8635193c1.43954076 0 2.88074393-1.44120319 4.3219471-1.44120149 1.43954076 0 2.87908149 0 4.32028469 1.44120149l218.93819413 87.8635193c5.76148785 2.88074393 7.20102862 8.64223179 7.2010286 10.08177253z m-289.51558743 210.29596402v417.71118414c0 4.32194711-1.44120319 7.20102862-4.3219471 10.08177085-2.88074393 1.44120319-7.20102862 2.88074393-10.08177255 1.44120313l-266.47130011-106.58918433c-4.32194711-1.43954076-7.20269104-5.76148785-7.20269104-10.08177252V339.57605959c0-4.32194711 1.44120319-7.20269104 4.32194711-8.64223012 2.88074393-1.44120319 7.20102862-2.88074393 10.08177252-1.44120317l266.47130013 106.58918438c4.32194711 0 7.20269104 4.32194711 7.20269104 8.64223175z" p-id="872"></path>
  <path d="M138.79964198 498.01863459c-30.24864244 8.64223179-63.3763647-10.08343497-70.57905572-40.33041327-12.96251646-46.09356357-18.72400432-92.18546639-18.72400431-139.71857071 0-138.27570511 53.29292976-270.79158479 151.23988398-370.1780798 95.06621031-97.94529182 226.13922439-152.68108717 361.53584803-152.68108549h685.62202329V-310.03417269c0-33.12938468 23.04595142-46.09356357 50.41384994-27.36789684l247.74563338 162.76285801c27.3662361 18.72566674 27.3662361 47.53310432 0 64.81756789l-247.74729582 155.56183111c-27.3662361 17.28446355-50.41218583 4.32194711-50.4121875-28.80743927v-106.58918434H565.15305789c-220.37939898 0-397.54597662 181.48852476-397.54597664 406.1882084 0 38.89087253 5.76148785 76.34054359 14.40371797 110.90780662 4.32194711 30.25030319-14.40371964 60.49728321-43.21115724 70.58071813z m1623.31163046 66.25710865c12.96251646 46.09190115 18.72400432 93.62500715 18.72400265 139.71690829 0 138.27736753-53.29292976 270.79158479-151.23988234 370.17807812-95.06621031 97.94695255-226.13922439 152.68108717-361.535848 152.68108716H582.43751975v105.14798286c0 33.12938468-23.04595142 46.09190115-50.41384824 27.36623441l-247.74563338-162.76285802c-27.3662361-18.72400432-27.3662361-47.53144191 0-64.81756789l247.7472958-155.56016866c27.3662361-17.28446355 50.41218583-4.32194711 50.41218582 28.80743759v105.14798283h682.74128108c220.37773655 0 398.9855174-181.48852476 398.98551738-406.1882084 0-38.89087253-5.76148785-76.34054359-15.84326039-110.9078066-7.20269104-31.68984393 12.96251646-63.37802713 44.65069964-69.13951499 4.32194711-1.44120319 7.20269104-1.44120319 11.52297573-1.44120317 27.36789851 0 50.41384823 15.84492283 57.61487682 41.77161647z" p-id="873"></path>
</svg>