<?xml version="1.0" standalone="no"?><!DOCTYPE svg PUBLIC "-//W3C//DTD SVG 1.1//EN" "http://www.w3.org/Graphics/SVG/1.1/DTD/svg11.dtd"><svg t="1598497931858" class="icon" viewBox="0 0 1024 1024" version="1.1" xmlns="http://www.w3.org/2000/svg" p-id="8989" xmlns:xlink="http://www.w3.org/1999/xlink" width="200" height="200"><defs><style type="text/css"></style></defs><path d="M615.19644446 511.88622221l309.13422221-309.13422221c28.33066668-28.33066668 28.33066668-74.52444446 0-102.85511111-28.33066668-28.33066668-74.52444446-28.33066668-102.85511112 0L512.34133334 409.0311111 203.20711111 99.89688889c-28.33066668-28.33066668-74.52444446-28.33066668-102.85511111 0-28.33066668 28.33066668-28.33066668 74.52444446 0 102.85511111l309.13422223 309.13422223-309.13422223 309.13422222c-28.33066668 28.33066668-28.33066668 74.52444446 0 102.8551111 28.33066668 28.33066668 74.52444446 28.33066668 102.85511111 0l309.13422223-309.13422223L821.58933334 923.87555555c28.33066668 28.33066668 74.52444446 28.33066668 102.8551111 0 28.33066668-28.33066668 28.33066668-74.52444446 0-102.8551111L615.19644446 511.88622221z" p-id="8990"></path></svg>