<svg width="18" height="18" viewBox="0 0 18 18" xmlns="http://www.w3.org/2000/svg"><g fill="none" fill-rule="evenodd"><path d="M7.846 3.128c.193 0 .354.135.37.312.015.176-.12.334-.311.362a2.02 2.02 0 0 1-.109.013H4.012c-.7 0-1.275.557-1.275 1.252v9.004c0 .695.575 1.252 1.275 1.252h9.976c.7 0 1.275-.557 1.275-1.252V8.765c0-.187.165-.34.369-.34.203 0 .368.153.368.34v5.306C16 15.132 15.103 16 13.988 16H4.01C2.897 16 2 15.133 2 14.07V5.068c0-1.062.897-1.93 2.012-1.93l3.73.003a.474.474 0 0 1 .104-.012zm7.648.907c.188.042.306.214.265.388a.332.332 0 0 1-.088.17l-2.318 3a.382.382 0 0 1-.336.14.369.369 0 0 1-.3-.196.316.316 0 0 1 .034-.337l1.846-2.389c-3.834.683-7.078 3.584-7.392 7.084a.34.34 0 0 1-.21.278.396.396 0 0 1-.367-.028.33.33 0 0 1-.158-.306c.324-3.622 3.488-6.627 7.345-7.558l-2.245-.618c-.195-.053-.306-.242-.248-.421.059-.18.264-.281.46-.228l3.712 1.021zM7.99 3.831l-.057.02a.282.282 0 0 0 .057-.02z" fill="#000" fill-rule="nonzero" stroke="#000" stroke-width=".5"/><path d="M0 0h18v18H0z"/></g></svg>