<?xml version="1.0" encoding="UTF-8"?>
<svg width="18px" height="18px" viewBox="0 0 18 18" version="1.1" xmlns="http://www.w3.org/2000/svg" xmlns:xlink="http://www.w3.org/1999/xlink">
    <title>编组</title>
    <g id="页面-1" stroke="none" stroke-width="1" fill="none" fill-rule="evenodd">
        <g id="生产计划主页" transform="translate(-1295.000000, -337.000000)">
            <g id="编组-34" transform="translate(441.000000, 311.240000)">
                <g id="编组-32" transform="translate(845.000000, 17.000000)">
                    <rect id="矩形-copy-37备份-5" stroke="#DADADA" x="0.5" y="2.26" width="173" height="31" rx="2"></rect>
                    <g id="编组" transform="translate(10.000000, 10.760000)" fill="#040000" fill-rule="nonzero">
                        <path d="M16.9534804,11.4377174 L15.717401,9.96531321 C15.4928219,9.63773914 15.3287868,9.94669064 15.3287868,9.94669064 L14.0997161,11.4035252 C13.8866195,11.6958385 14.213646,11.7194983 14.213646,11.7194983 L14.7703216,11.7194983 C15.2220148,13.2012138 13.429558,13.8093476 13.429558,13.8093476 C13.3268123,13.8636889 13.429558,13.9044448 13.429558,13.9044448 C16.1251029,14.4762493 16.2542433,11.7144611 16.2543924,11.7141558 L16.8546119,11.712324 C17.1076735,11.6592039 16.9534804,11.4377174 16.9534804,11.4377174 L16.9534804,11.4377174 Z M1.2371233,3.0868683 C1.28320226,3.49106967 1.57593045,3.29614325 1.57593045,3.29614325 L3.36346625,2.60191824 C3.69213304,2.4460687 3.41088732,2.26289587 3.41088732,2.26289587 L2.91311519,1.98722077 C3.2092732,0.43849452 5.0998529,0.782096213 5.0998529,0.782096213 C5.21751084,0.784233229 5.14488801,0.697073493 5.14488801,0.697073493 C3.00452751,-1.1493086 1.58398308,1.25636119 1.58353572,1.25666648 L1.04594778,0.960995007 C0.794377508,0.883757132 0.827482784,1.1579058 0.827482784,1.1579058 L1.2371233,3.0868683 Z" id="形状"></path>
                        <path d="M16.465103,0.631436564 L7.52742404,0.631436564 L7.52742404,4.1759834 L0,4.1759834 L0,14 L12.3448382,14 L12.3448382,7.64329235 L16.465103,7.64329235 L16.465103,0.631436564 Z M10.9899079,12.6130764 L1.39250932,12.6130764 L1.39250932,5.56290698 L10.9899079,5.56290698 L10.9899079,12.6130764 Z M15.7698922,6.91121162 L12.3448382,6.91121162 L12.3448382,4.1759834 L8.24246818,4.1759834 L8.24246818,1.40198359 L15.7698922,1.40198359 L15.7698922,6.91121162 Z" id="形状"></path>
                    </g>
                </g>
            </g>
        </g>
    </g>
</svg>