<svg width="18" height="18" viewBox="0 0 18 18" xmlns="http://www.w3.org/2000/svg"><g fill="none" fill-rule="evenodd"><path d="M0 0h18v18H0z"/><g fill="#000" fill-rule="nonzero"><path d="M16.595 8.8l-.501.009c-.068-2.742-1.776-5.223-4.415-6.275-2.807-1.12-6.046-.386-8.057 1.827a.51.51 0 0 0 .045.734c.218.19.557.172.754-.043 1.708-1.884 4.46-2.507 6.852-1.554 2.242.895 3.694 3.001 3.754 5.33l-.546.012c-.311.005-.478.355-.283.59l1.082 1.31c.153.183.443.18.589-.012L16.9 9.38c.185-.242.004-.585-.305-.58zM14.312 12.868a.543.543 0 0 0-.754.044c-1.708 1.883-4.463 2.506-6.85 1.553-2.242-.893-3.695-3-3.754-5.33l.546-.011c.31-.006.477-.356.283-.59L2.7 7.223a.379.379 0 0 0-.59.011l-1.03 1.35c-.186.242-.004.585.306.58l.502-.01c.067 2.742 1.776 5.223 4.414 6.274.876.35 1.795.52 2.704.52 2.006-.002 3.97-.824 5.352-2.346a.51.51 0 0 0-.047-.735z"/><path d="M6.959 5c.07.01.17.044.26.106.107.074.191.151.255.233L9.181 8.16l1.886-2.857a.929.929 0 0 1 .233-.195l.1-.051a.765.765 0 0 1 .108-.037l.099-.019h-.024c.088.004.167.015.237.03.054.012.098.03.135.054a.259.259 0 0 1 .08.093c.027.05.05.126.066.225a.537.537 0 0 1-.143.295l-1.832 2.687h1.942c.1.007.182.04.236.092.056.054.087.12.095.212a.4.4 0 0 1-.107.203.361.361 0 0 1-.251.104l-2.142.01v1.048h2.17a.33.33 0 0 1 .225.1.39.39 0 0 1 .105.241.39.39 0 0 1-.103.199c-.054.057-.132.09-.245.098l-2.152-.01v1.207c-.019.358-.212.517-.68.517-.24 0-.416-.048-.53-.137-.102-.078-.159-.203-.169-.393v-1.175H6.343a.288.288 0 0 1-.218-.108.584.584 0 0 1-.124-.289.514.514 0 0 1 .104-.16c.05-.05.131-.082.254-.09h2.163V8.988l-2.178-.01c-.105-.008-.184-.04-.234-.093A.424.424 0 0 1 6 8.637a.499.499 0 0 1 .104-.162c.05-.05.131-.081.254-.09h1.875l-1.58-2.512a1.372 1.372 0 0 1-.181-.26.434.434 0 0 1-.05-.235.554.554 0 0 1 .131-.251c.05-.054.186-.103.406-.127z"/></g></g></svg>