<?xml version="1.0" encoding="utf-8"?>
<!-- Generator: Adobe Illustrator 23.0.1, SVG Export Plug-In . SVG Version: 6.00 Build 0)  -->
<svg version="1.1" id="图层_1" xmlns="http://www.w3.org/2000/svg" xmlns:xlink="http://www.w3.org/1999/xlink" x="0px" y="0px"
	 viewBox="0 0 15 15" style="enable-background:new 0 0 15 15;" xml:space="preserve">
<style type="text/css">
	.st0{filter:url(#Adobe_OpacityMaskFilter);}
	.st1{fill-rule:evenodd;clip-rule:evenodd;fill:#FFFFFF;}
	.st2{mask:url(#mask-2_1_);fill-rule:evenodd;clip-rule:evenodd;fill:#58637B;}
	.st3{fill-rule:evenodd;clip-rule:evenodd;fill:#58637B;}
</style>
<g id="页面-1">
	<g id="商品列表-首页-copy-125" transform="translate(-1876.000000, -259.000000)">
		<g id="分组" transform="translate(1876.000000, 259.000000)">
			<g transform="translate(1.000000, 2.000000)">
				<defs>
					<filter id="Adobe_OpacityMaskFilter" filterUnits="userSpaceOnUse" x="3.1" y="2.1" width="10.7" height="10.7">
						<feColorMatrix  type="matrix" values="1 0 0 0 0  0 1 0 0 0  0 0 1 0 0  0 0 0 1 0"/>
					</filter>
				</defs>
				<mask maskUnits="userSpaceOnUse" x="3.1" y="2.1" width="10.7" height="10.7" id="mask-2_1_">
					<g class="st0">
						<polygon id="path-1_1_" class="st1" points="1,0 15.9,0 15.9,15 1,15 						"/>
					</g>
				</mask>
				<path id="Fill-1" class="st2" d="M12.7,2.1H9.9c-0.2,0-0.3,0.2-0.3,0.3v0.4c0,0.2,0.2,0.3,0.3,0.3h2.5c0.2,0,0.3,0.2,0.3,0.4
					v7.9c0,0.2-0.2,0.4-0.3,0.4H4.6c-0.2,0-0.3-0.2-0.3-0.4V8.9c0-0.2-0.2-0.3-0.3-0.3H3.5c-0.2,0-0.3,0.2-0.3,0.3v2.9
					c0,0.6,0.5,1.1,1.1,1.1h8.5c0.6,0,1.1-0.5,1.1-1.1V3.2C13.8,2.6,13.3,2.1,12.7,2.1"/>
			</g>
		</g>
	</g>
</g>
<path class="st3" d="M9.3,10.3H1.1c-0.5,0-0.9-0.4-0.9-0.9V1.3c0-0.5,0.4-0.9,0.9-0.9h8.1c0.5,0,0.9,0.4,0.9,0.9v8.1
	C10.2,9.9,9.8,10.3,9.3,10.3z"/>
</svg>
