<?xml version="1.0" encoding="UTF-8"?>
<svg width="14px" height="14px" viewBox="0 0 14 14" version="1.1" xmlns="http://www.w3.org/2000/svg" xmlns:xlink="http://www.w3.org/1999/xlink">
    <title>低于</title>
    <g id="切图管理" stroke="none" stroke-width="1" fill="none" fill-rule="evenodd">
        <g id="低于" fill-rule="nonzero">
            <g>
                <rect id="矩形" x="0" y="0" width="14" height="14"></rect>
                <path d="M8.90760059,7.30574744 L8.90760059,2.66321842 C8.90760059,2.296933 8.61545137,2 8.25506706,2 L5.64493294,2 C5.28454863,2 4.99239941,2.296933 4.99239941,2.66321842 L4.99239941,7.30574744 L2.65241417,7.30574744 C2.3883641,7.30580446 2.15037371,7.46759479 2.04950624,7.71561556 C1.94863876,7.96363633 2.00477805,8.24899563 2.1917255,8.43852452 L6.48800626,12.8051547 C6.61042711,12.929895 6.77665152,13 6.95,13 C7.12334848,13 7.28957289,12.929895 7.41199374,12.8051547 L11.7082745,8.43852452 C11.895222,8.24899563 11.9513612,7.96363633 11.8504938,7.71561556 C11.7496263,7.46759479 11.5116359,7.30580446 11.2475858,7.30574744 L8.90760059,7.30574744 L8.90760059,7.30574744 Z" id="形状" fill="#E04B20"></path>
            </g>
        </g>
    </g>
</svg>