<?xml version="1.0" encoding="utf-8"?>
<!-- Generator: Adobe Illustrator 23.0.1, SVG Export Plug-In . SVG Version: 6.00 Build 0)  -->
<svg version="1.1" id="图层_1" xmlns="http://www.w3.org/2000/svg" xmlns:xlink="http://www.w3.org/1999/xlink" x="0px" y="0px"
	 viewBox="0 0 40 40" style="enable-background:new 0 0 40 40;" xml:space="preserve">
<g>
	<g>
		<path class="st0" d="M19.8,11.5c0.9,0,1.7,0.8,1.7,1.7v10.2c0,0.9-0.8,1.7-1.7,1.7c-0.9,0-1.7-0.8-1.7-1.7V13.2
			c0-0.5,0.2-0.9,0.5-1.2C18.9,11.7,19.3,11.5,19.8,11.5L19.8,11.5z M18.6,27.3c0.4-0.4,1.1-0.6,1.6-0.4c0.6,0.2,1,0.6,1.2,1.2
			c0.2,0.6,0,1.2-0.4,1.6c-0.4,0.4-1.1,0.6-1.6,0.4c-0.6-0.2-1-0.6-1.2-1.2C18,28.3,18.1,27.7,18.6,27.3L18.6,27.3z M19.8,6.1
			c-0.6,0-1.1,0.3-1.5,0.8l-14.4,24c-0.3,0.5-0.3,1.2,0,1.7c0.3,0.5,0.8,0.9,1.4,0.9h28.8c0.6,0,1.2-0.3,1.5-0.8
			c0.3-0.5,0.3-1.2,0-1.7l-14.4-24C20.9,6.4,20.4,6.1,19.8,6.1L19.8,6.1z M19.8,2.7c1.8,0,3.4,0.9,4.4,2.5l14.4,24.1
			c0.9,1.6,0.9,3.5,0,5.1c-0.9,1.6-2.6,2.6-4.4,2.6H5.4c-1.8,0-3.5-1-4.4-2.6c-0.9-1.6-0.9-3.5,0-5.1l14.4-24
			C16.3,3.6,18,2.7,19.8,2.7L19.8,2.7z M19.8,2.7"/>
	</g>
</g>
</svg>
