<?xml version="1.0" standalone="no"?><!DOCTYPE svg PUBLIC "-//W3C//DTD SVG 1.1//EN" "http://www.w3.org/Graphics/SVG/1.1/DTD/svg11.dtd"><svg t="1600151942653" class="icon" viewBox="0 0 1024 1024" version="1.1" xmlns="http://www.w3.org/2000/svg" p-id="16800" xmlns:xlink="http://www.w3.org/1999/xlink" width="32" height="32"><defs><style type="text/css"></style></defs><path d="M512 7.00777399c-275.31094198 0-500.76678379 225.45584182-500.76678379 500.7667838s225.45584182 500.76678379 500.76678379 500.76678379 500.76678379-225.45584182 500.76678379-500.76678379S787.31094198 7.00777399 512 7.00777399z m0 926.19697179c-233.76502518 0-425.43018801-191.66516283-425.43018801-425.43018799S278.23497482 82.34436978 512 82.34436978c233.76502518 0 425.43018801 191.66516283 425.43018801 425.43018801 0 233.76502518-191.66516283 425.43018801-425.43018801 425.43018799z" p-id="16801"></path><path d="M607.8325814 641.27543709c-12.74074781 0-58.71822907 70.90503134-87.52339804 70.90503133-8.30918336 0-8.30918336-4.43156445-8.30918336-12.74074781 0-12.74074781 8.30918336-33.23673343 16.61836672-45.97748126l62.59584797-162.85999384c29.35911454-79.21421469-8.30918336-100.26414587-45.97748126-100.26414587-49.85510015 0-95.8325814 24.92755008-129.6232604 54.28666461-12.74074781 12.74074781-37.66829788 54.2866646-37.6682979 67.02741243 0 4.43156445 4.43156445 12.74074781 12.74074783 12.74074782 16.61836672 0 45.97748124-79.21421469 79.2142147-79.2142147 8.30918336 0 16.61836672 8.30918336 8.30918334 21.04993119l-62.59584797 146.24162713c-4.43156445 12.74074781-37.66829788 62.59584798-37.6682979 100.26414586 0 33.23673343 21.04993118 67.02741243 54.28666462 67.02741243 87.52339805 0 187.78754392-104.14176477 187.78754392-125.19169595-3.87761891-8.86312892-7.7552378-13.29469337-12.18680227-13.29469337zM591.21421469 236.89518026c-37.66829788 0-70.90503134 29.35911454-70.90503133 67.02741244 0 33.23673343 24.92755008 58.71822907 58.71822907 58.71822907 37.66829788 0 70.90503134-29.35911454 70.90503133-67.02741243 0-38.22224345-25.48149564-58.71822907-58.71822907-58.71822908z" p-id="16802"></path></svg>